<svg width="552" height="175" viewBox="0 0 552 175" fill="none" xmlns="http://www.w3.org/2000/svg">
<g clip-path="url(#clip0_2_1079)">
<path d="M0 138.99V7H29.5171V139H0V138.99ZM25.916 138.99V112.957H81V138.99H25.916Z" fill="#F9F9F9"/>
<path d="M296.46 174.86V39.89H319.38V82.66L316.31 82.48C316.79 72.62 318.84 64.29 322.45 57.49C326.06 50.7 330.93 45.58 337.07 42.15C343.2 38.72 350.12 37.01 357.82 37.01C364.68 37.01 370.9 38.27 376.5 40.8C382.1 43.33 386.9 46.84 390.94 51.36C394.97 55.87 398.04 61.17 400.14 67.24C402.24 73.32 403.3 79.96 403.3 87.18V91.33C403.3 98.43 402.28 105.07 400.23 111.27C398.18 117.47 395.21 122.85 391.3 127.42C387.39 131.99 382.64 135.57 377.05 138.16C371.46 140.75 365.05 142.04 357.83 142.04C350.61 142.04 343.66 140.51 337.71 137.44C331.76 134.37 326.97 129.68 323.36 123.37C319.75 117.05 317.77 109.02 317.4 99.28L325.34 110.11V174.89H296.47L296.46 174.86ZM349.69 117.84C354.62 117.84 358.92 116.64 362.59 114.23C366.26 111.82 369.11 108.46 371.16 104.13C373.2 99.8 374.23 94.81 374.23 89.15C374.23 83.49 373.21 78.57 371.16 74.35C369.11 70.14 366.29 66.86 362.68 64.52C359.07 62.18 354.74 61 349.69 61C345.36 61 341.27 62.02 337.42 64.07C333.57 66.12 330.47 69.03 328.13 72.82C325.78 76.61 324.61 81.21 324.61 86.62V93.3C324.61 98.47 325.84 102.89 328.31 106.56C330.77 110.23 333.93 113.03 337.78 114.95C341.63 116.88 345.6 117.84 349.69 117.84Z" fill="#F9F9F9"/>
<path d="M449.1 39.89H407.06V61.18H449.1V39.89Z" fill="#F9F9F9"/>
<path d="M431.42 30.14C426.01 30.14 422.01 28.73 419.42 25.9C416.83 23.07 415.54 19.49 415.54 15.16C415.54 10.83 416.83 7.07 419.42 4.24C422.01 1.42 426.01 0 431.42 0C436.83 0 440.83 1.42 443.42 4.24C446.01 7.07 447.3 10.71 447.3 15.16C447.3 19.61 446.01 23.07 443.42 25.9C440.83 28.73 436.83 30.14 431.42 30.14Z" fill="#F9F9F9"/>
<path d="M449.1 39.89H420.23V138.77H449.1V39.89Z" fill="#F9F9F9"/>
<path d="M458.87 138.77V39.89H481.79V82.29H480.17C480.17 72.19 481.46 63.77 484.05 57.03C486.64 50.29 490.57 45.24 495.87 41.87C501.16 38.5 507.6 36.82 515.18 36.82H516.44C527.99 36.82 536.8 40.58 542.88 48.1C548.95 55.62 551.99 67.02 551.99 82.29V138.77H523.12V80.67C523.12 75.38 521.56 71.05 518.43 67.68C515.3 64.31 511.09 62.63 505.8 62.63C500.51 62.63 496.03 64.34 492.72 67.77C489.41 71.2 487.76 75.68 487.76 81.21V138.77H458.89H458.87Z" fill="#F9F9F9"/>
<path d="M199.54 48.9C236.28 14.28 291.15 42.53 286.79 92.27C284.64 116.81 264.99 137.06 240.14 138.38C218.16 139.54 200.41 128.35 189.23 110.08L202.33 90.59C211.87 109.11 230.68 125.12 251.58 111.3C277.95 93.85 258.76 46.54 226.25 58.15C201.39 67.02 190.41 119.96 157.5 134.24C121.54 149.85 84.34 123.28 85.64 84.5C87.48 29.69 157.23 15.82 183.27 61.82L170.93 82.73C161.07 65.51 142.13 47.29 121.82 62.18C89.81 85.64 126.47 141.5 160.6 103.82C175.73 87.11 182.88 64.61 199.52 48.92L199.54 48.9Z" fill="#F9F9F9"/>
</g>
<defs>
<clipPath id="clip0_2_1079">
<rect width="551.98" height="174.89" fill="white"/>
</clipPath>
</defs>
</svg>
