<?xml version="1.0" encoding="UTF-8"?>
<svg id="Capa_1" data-name="Capa 1" xmlns="http://www.w3.org/2000/svg" viewBox="0 0 294.59 208.94">
  <defs>
    <style>
      .cls-1 {
        fill: #fff;
      }

      .cls-2, .cls-3 {
        fill-rule: evenodd;
      }

      .cls-2, .cls-4 {
        fill: #868934;
      }

      .cls-3 {
        fill: #002d39;
      }
    </style>
  </defs>
  <path class="cls-4" d="M30.51,120.12v-.17c0-16.77,12.64-30.5,30.75-30.5,11.12,0,17.78,3.71,23.25,9.1l-8.26,9.52c-4.55-4.13-9.18-6.66-15.08-6.66-9.94,0-17.1,8.26-17.1,18.37v.17c0,10.11,6.99,18.54,17.1,18.54,6.74,0,10.87-2.7,15.5-6.91l8.26,8.34c-6.07,6.49-12.81,10.53-24.18,10.53-17.36,0-30.25-13.4-30.25-30.33"/>
  <polygon class="cls-4" points="95.3 90.46 108.28 90.46 108.28 113.8 132.21 113.8 132.21 90.46 145.18 90.46 145.18 149.44 132.21 149.44 132.21 125.77 108.28 125.77 108.28 149.44 95.3 149.44 95.3 90.46"/>
  <polygon class="cls-4" points="159.34 90.46 203.83 90.46 203.83 102.01 172.23 102.01 172.23 113.97 200.03 113.97 200.03 125.51 172.23 125.51 172.23 137.9 204.25 137.9 204.25 149.44 159.34 149.44 159.34 90.46"/>
  <polygon class="cls-4" points="214.02 139.59 246.46 101.84 215.04 101.84 215.04 90.46 263.15 90.46 263.15 100.32 230.71 138.07 263.15 138.07 263.15 149.44 214.02 149.44 214.02 139.59"/>
  <path class="cls-2" d="M64.61,68.48c2.6-2.71,5.15-5.4,6.71-8.87,1.73-3.87,1.51-7.59-1.6-10.54-2.48-2.35-5.39-4.24-8.17-6.25-2.35-1.69-4.51-3.53-5.83-6.17-2.01-4.02-1.83-7.94.67-11.67,2.54-3.77,6.17-6.18,10.48-7.73-.61.73-1.21,1.47-1.82,2.19-1.91,2.29-3.8,4.59-4.99,7.39-1.41,3.32-.77,6.28,1.74,8.64,2.03,1.91,4.43,3.44,6.7,5.1,2.74,2,5.25,4.22,6.8,7.31,2.35,4.69,1.97,9.2-1.05,13.49-2.43,3.43-5.95,5.38-9.62,7.11"/>
  <path class="cls-2" d="M55.15,46.36c3.45.58,6.5,1.8,8.89,4.28,3.03,3.13,3.01,7.91-.01,11.56-1.29,1.56-2.75,3-4.1,4.51-.5.56-.96,1.15-1.38,1.76-2.13,3.1-2.06,6.06.43,8.87,1.2,1.35,2.71,2.42,4.11,3.59.43.36.93.64,1.31,1.08-3.89-.74-7.38-2.18-9.51-5.77-1.98-3.34-1.54-6.73.41-9.9.99-1.61,2.34-3,3.54-4.47.81-.99,1.76-1.9,2.45-2.96,1.84-2.82,1.68-5.24-.67-7.68-1.65-1.72-3.56-3.19-5.47-4.87"/>
  <path class="cls-3" d="M180.95,147.97c1.04-.58,2.24-.52,3.16.03.14.06.28.14.41.22,0,0,.01,0,.02,0,.52.18,1,.51,1.39.98.57.65.91,1.45.91,2.33,0,.48-.1.89-.3,1.3-.1.22-.2.47-.3.71-.16.4-.32.79-.46,1.19.26-.33.53-.65.79-.98.36-.5.74-.99,1.14-1.46.26-.32.54-.66.83-.95.73-.73,1.66-1.21,2.71-1.21.78,0,1.51.27,2.21.59,1.09.46,2.04,1.19,2.5,2.3.23.51.37,1.05.43,1.6.1-.05.2-.1.3-.15.3-.15.6-.31.9-.48.42-.24.85-.47,1.29-.68,1.16-.58,2.51-.36,3.43.56.06.06.12.13.18.2.17.12.32.26.46.41.43.39.76.92.94,1.53.38,1.33-.06,2.72-1.15,3.51-.29.23-.63.45-.92.64-.5.34-1.02.67-1.56.95-.38.22-.75.44-1.13.66-.51.3-1.01.61-1.51.92-.55.34-1.09.68-1.64,1.03-.46.29-.91.58-1.36.87-.01,0-.02.01-.03.02l-.25.16-.64,2.1s-.01.03-.02.05c-.53,1.64-1.08,3.28-1.67,4.91-.49,1.35-1,2.69-1.56,4.01-.49,1.17-1.01,2.33-1.56,3.47-.56,1.17-1.17,2.32-1.83,3.44-1.76,2.99-4.32,6.68-7.56,8.21-.7.34-1.46.54-2.24.64-.81.11-1.64.1-2.44-.1-.29-.07-.59-.16-.87-.27-.23-.09-.47-.18-.69-.3-.2-.1-.36-.2-.53-.34-.48-.38-.89-.85-1.25-1.34-.34-.48-.64-1-.84-1.56-.93-2.32-.34-4.98.51-7.23,1.11-2.95,2.77-5.82,4.5-8.44,1.04-1.58,2.17-3.1,3.41-4.53-1.78-.77-2.91-2.37-3.24-4.44-.12-.77-.17-1.56-.09-2.33.08-.79.23-1.6.38-2.38.01-.06.02-.11.04-.16.12-.48.25-.98.33-1.47.12-.69.35-1.37.6-2.02,0-.02.01-.03.02-.05.51-1.25,1.03-2.5,1.58-3.73.52-1.15,1.14-2.35,2.28-2.96M249.98,148.77c-.04-.21-.05-.43-.05-.65,0-.59.14-1.17.32-1.72.13-.4.28-.8.44-1.19.16-.41.35-.82.56-1.21.61-1.12,1.6-1.92,2.95-1.92.84,0,1.6.3,2.17.78.22.09.44.2.64.34.63.42,1.1,1.01,1.34,1.7.33.74.37,1.59.11,2.39-.13.4-.35.79-.57,1.16-.08.2-.17.4-.26.6-.05.12-.11.24-.17.36-.18.59-.42,1.1-.88,1.57-.14.14-.29.27-.45.38.11.5.11,1.04-.01,1.58-.07.31-.16.61-.25.91-.3.98-.63,1.96-.96,2.93-.05.18-.11.35-.16.53.1-.11.19-.21.29-.32.62-.69,1.23-1.38,1.83-2.09.22-.29.45-.61.7-.86.05-.05.09-.09.14-.14.58-.58,1.28-.87,2.1-.87.36,0,.7.06,1.02.16.32.04.62.13.92.29.16.08.32.17.45.27.35.16.69.39,1.01.7.55.55.83,1.26.86,1.98.07.63-.05,1.3-.39,1.93-.17.3-.37.59-.58.86-.47.62-.96,1.23-1.46,1.83-.64.77-1.3,1.54-1.97,2.29-.66.75-1.33,1.5-1.99,2.26-.83.97-1.7,1.99-2.62,2.87-.72.69-1.51,1.3-2.39,1.77-.1.06-.2.1-.31.14-.44.18-.91.3-1.37.39-.67.13-1.34.16-2.01.05-1.43-.25-2.72-.9-3.56-2.11-.27-.38-.47-.79-.64-1.23-1.58.87-3.36,1.32-5.18.81-.05-.01-.09-.03-.14-.04-.41-.14-.81-.3-1.18-.51-.53-.3-.97-.73-1.37-1.2-.2-.23-.37-.47-.53-.72-.29.24-.58.48-.88.7-.67.5-1.39.97-2.15,1.31-.84.38-1.73.57-2.65.57-.63,0-1.26-.07-1.88-.19-.1-.02-.19-.04-.29-.07-1.11-.34-2.08-.97-2.87-1.84,0,0-.01-.02-.02-.02-.38.33-.76.61-1.13.79-.05.03-.1.05-.16.07-.73.31-1.51.45-2.3.45-.99,0-1.93-.27-2.77-.79-.03-.02-.05-.03-.07-.05-.93-.62-1.6-1.46-2.06-2.42-.36.5-.74,1-1.13,1.46-.03.04-.06.07-.1.11-.69.74-1.5,1.51-2.41,1.96-1.03.51-2.16.62-3.28.45-.1-.01-.18-.03-.27-.05-1.97-.49-3.34-1.9-3.95-3.83-.03-.1-.05-.18-.07-.28-.17-.79-.27-1.6-.23-2.41.04-.82.2-1.68.36-2.48,0-.05.02-.09.03-.14.23-.91.49-1.82.83-2.69.37-.94.87-1.85,1.38-2.71,1.39-2.54,3.32-5.07,6.06-6.24.87-.37,1.8-.6,2.75-.54.16,0,.32.03.48.05.09-.18.18-.36.27-.54.63-1.35,1.24-2.71,1.8-4.09.49-1.22.98-2.45,1.44-3.65.33-.92.67-1.86,1.01-2.8.28-.79.57-1.59.86-2.38.22-.61.45-1.21.7-1.8.36-.87.8-1.63,1.63-2.12.97-.59,2.15-.69,3.19-.17.07.04.14.07.2.11.04.02.09.04.13.06.42.13.79.36,1.09.64.18.14.34.3.48.47.37.39.66.89.81,1.47.14.57.16,1.16.05,1.74-.06.39-.17.76-.31,1.14-.13.36-.26.71-.39,1.07-1.18,3.16-2.25,6.36-3.17,9.61-.79,2.8-1.51,5.61-2.17,8.45.17-.44.35-.87.54-1.3.53-1.15,1.27-2.21,2.08-3.18,1.38-1.83,3.25-3.51,5.67-3.51.99,0,1.92.34,2.78.8.81.44,1.56.99,2.06,1.77.13-.46.26-.91.41-1.36.05-.14.1-.26.16-.39.11-.24.21-.6.28-.86.19-.67.41-1.34.64-2,.24-.83.49-1.66.74-2.49.31-1.03.64-2.06,1-3.08.32-.89.63-1.78.93-2.68.25-.75.49-1.51.76-2.26.25-.79.54-1.75.91-2.49.61-1.22,1.74-2.05,3.13-2.05.83,0,1.52.28,2.04.74.1.06.2.12.3.18.58.3,1.08.8,1.38,1.48.52,1.09.3,2.27.02,3.42-.2.84-.43,1.68-.69,2.51-.19.67-.42,1.35-.64,2.02-.34,1.05-.68,2.11-1.02,3.16-1.43,4.46-2.86,8.97-4.06,13.49-.13.5-.28,1.04-.42,1.6.46-.52.92-1.05,1.37-1.58.3-.35.6-.72.87-1.1.04-.1.08-.19.13-.29.14-.36.28-.72.42-1.08.46-1.14.99-2.41,1.66-3.45.36-.56.81-1.06,1.33-1.43ZM123.71,155.96c-.23,0-.44-.01-.65-.05-.2-.02-.39-.06-.57-.11-.31.6-.58,1.22-.82,1.86-.28.77-.53,1.55-.74,2.34,1.58-1.3,3.07-2.78,4.46-4.24-.54.21-1.09.3-1.68.22ZM162.34,146.34s0,0,0-.01c-.02-.04-.04-.09-.05-.13-.21-.48-.3-1.02-.24-1.56.03-.37.12-.74.26-1.1.22-.55.57-1.03.95-1.48.27-.32.56-.63.85-.94.31-.32.63-.63.97-.91.98-.8,2.22-1.18,3.46-.68.8.32,1.39.89,1.74,1.55.16.16.31.34.45.53.42.62.63,1.35.6,2.08.03.81-.25,1.62-.8,2.26-.28.32-.62.61-.97.86-.15.15-.31.31-.46.45-.1.09-.19.18-.29.27-.22.26-.44.5-.7.71.2.23.38.48.53.76.75,1.31.9,2.68.66,4.01.1,0,.19-.01.29-.01.34,0,.66.05.97.16.33.04.64.13.96.29.17.08.32.17.46.27.35.16.69.39,1.01.7.73.73,1,1.75.81,2.69-.04.38-.15.76-.33,1.13-.17.35-.39.67-.63.98-.53.71-1.15,1.39-1.75,2.04-.02.02-.03.04-.05.05-.97,1.01-1.95,2.02-2.95,3.01-.77.77-1.58,1.52-2.45,2.17-.67.5-1.39.97-2.15,1.31-.84.38-1.73.57-2.65.57-.63,0-1.26-.07-1.88-.19-.1-.02-.19-.04-.29-.07-1.11-.34-2.08-.97-2.87-1.84-.67-.74-1.2-1.6-1.56-2.53-.02-.06-.04-.12-.06-.18-.09-.3-.17-.6-.23-.91-.11.04-.21.07-.32.11.13.55.2,1.12.2,1.69s-.01,1.1-.04,1.66c-.03.66-.08,1.33-.15,1.99-.07.64-.16,1.28-.26,1.92-.1.65-.25,1.29-.45,1.91-.32.99-.69,1.95-1.13,2.89-.41.86-.85,1.7-1.33,2.51-.46.76-.97,1.51-1.57,2.17-.6.67-1.3,1.27-2.13,1.63-.12.05-.23.09-.35.13-.76.22-1.57.24-2.36.17-.15-.01-.27-.03-.41-.06-2.71-.62-3.81-3.04-3.88-5.59-.06-1.25.03-2.54.19-3.81.13-.95.29-1.91.47-2.86-1.28.48-2.66.63-4.07.21-.68-.16-1.32-.38-1.87-.82-.36-.29-.68-.65-.98-1-.11-.13-.2-.25-.29-.41-.03-.05-.06-.1-.09-.15,0,0,0,0,0,0-.95.99-2.1,1.79-3.47,2.02-.65.12-1.31.08-1.95-.05-.62-.12-1.23-.34-1.78-.66-.46-.27-.87-.6-1.2-.99-.52.38-1.05.73-1.6,1.04-1.46.83-3.09,1.39-4.79,1.31-.05,0-.1,0-.15-.01-.6-.06-1.21-.16-1.78-.37-.55-.2-1.05-.49-1.53-.83-.91-.62-1.66-1.42-2.17-2.4-.48-.92-.74-1.94-.86-2.98,0-.03,0-.05,0-.08-.07-.81-.02-1.63.08-2.44.11-.86.3-1.71.52-2.54.24-.87.52-1.73.84-2.57.32-.84.69-1.67,1.11-2.47.56-1.16,1.22-2.27,2.02-3.29.76-.98,1.64-1.87,2.68-2.56.02-.01.03-.02.05-.03.79-.5,1.65-.87,2.58-.99,1.23-.17,2.44.04,3.55.6,1.24.62,2.2,1.61,2.55,2.96.29.91.28,1.87.09,2.8-.01.07-.03.14-.05.22.21-.27.42-.54.64-.8.95-1.12,1.99-2.15,3.12-3.08,1.31-1.07,2.87-1.97,4.61-1.97.5,0,1,.06,1.49.22.39.13.78.32,1.14.5.12.06.21.11.32.19.74.49,1.43,1.06,1.86,1.83.05.03.1.06.15.09.39.25.79.52,1.11.84.24.24.4.47.55.77.45.91.52,1.9.39,2.89-.12.88-.47,1.9-.8,2.8.09-.11.18-.21.27-.31.25-.35.52-.68.79-1.01.2-.24.4-.48.6-.72.01-.02.02-.03.04-.05.11-.13.22-.26.33-.38,1.14-3.32,2.43-6.63,3.97-9.78,1.24-2.53,2.83-5.38,4.84-7.39.4-.4.85-.81,1.34-1.09.61-.35,1.29-.53,1.99-.53s1.34.22,1.97.52c.65.3,1.25.69,1.69,1.25.53.63.81,1.43.81,2.26,0,1.4-.84,2.61-2.08,3.04-.12.16-.24.32-.35.48-1.2,1.62-2.19,3.55-3.03,5.38-.9,1.97-1.71,4-2.46,6.04.56-.2,1.11-.42,1.66-.64.23-.09.46-.18.7-.25.12-.29.24-.57.37-.85.53-1.15,1.27-2.21,2.08-3.18,1.12-1.49,2.57-2.88,4.37-3.35Z"/>
  <path class="cls-1" d="M130.63,156.66c.07.07.14.14.07.21s-.07.21-.14.27-.27.34-.68.82-.89,1.03-1.44,1.57c-.55.62-1.09,1.16-1.57,1.71-.55.62-.96,1.03-1.23,1.3-1.5,1.44-2.8,2.53-3.96,3.14-1.16.68-2.26,1.03-3.21.96-.48-.07-.82-.14-1.03-.21-.27-.07-.55-.27-.89-.48-.55-.34-.96-.82-1.23-1.37-.27-.48-.48-1.16-.55-1.91-.07-.48,0-1.09.07-1.78s.27-1.44.48-2.19c.21-.75.41-1.5.75-2.26.27-.75.62-1.5.96-2.19.48-1.03,1.09-1.98,1.71-2.8.62-.82,1.3-1.44,1.98-1.91.48-.34.96-.48,1.37-.55.62-.07,1.23,0,1.85.27.62.34.96.68,1.03,1.16.14.34.14.82.07,1.37-.14.62-.34.96-.55,1.09-.34.21-.48.14-.41-.07,0-.07,0-.14.07-.21,0,0-.07.07-.14.14s-.14.14-.27.21-.14,0-.07-.07q-.07-.07-.07,0c-.34.14-.41,0-.34-.34,0-.21-.07-.21-.14,0-.07.21-.14.21-.14.07-.07-.14,0-.48.07-.96.07-.21.07-.48.14-.68,0-.21,0-.27-.07-.34-.07-.07-.21,0-.48.14-.21.21-.55.48-.89.82-.34.41-.68.82-.89,1.16-.75,1.09-1.44,2.39-1.98,3.83-.55,1.5-.96,3.01-1.23,4.51-.27,1.57-.21,2.8.27,3.55.07.21.14.27.2.27,0,.07.14.07.34,0,.96-.21,2.26-.96,3.9-2.26,1.57-1.3,3.42-3.01,5.47-5.19.41-.48.75-.82,1.03-1.09.2-.27.34-.41.41-.41.21,0,.21.21,0,.55l-.2.34.2-.27c.07-.07.14-.21.21-.27,0-.07.07-.07.14-.14,0-.07.07-.14.2-.07.07.07.14.14.07.21,0,.14,0,.21.07.14q.07-.07,0,.14c0,.07.07,0,.14-.14.07-.14.14-.21.21-.14,0,.07-.07.14-.14.34s-.07.21.07.07c.07-.21.14-.27.14-.27,0-.07.07-.14.14-.07.07.07.07.21.14.27ZM116.76,156.53c.07-.21.2-.55.41-.89s.34-.68.48-1.03c.34-.75.62-1.3.89-1.64.21-.34.27-.48.21-.41-.07.07-.34.34-.68.82-.2.41-.41.82-.62,1.16-.21.41-.48.96-.68,1.64-.2.62-.34.89-.34.96s.14-.14.34-.62ZM117.51,156.39c0,.21.07,0,.27-.62.21-.41.34-.62.27-.68-.14.21-.2.41-.27.62-.2.34-.27.62-.27.68ZM117.79,156.59l.14-.55c-.07-.07-.14.07-.21.41-.14.34-.21.48-.21.55,0,0,.07-.14.27-.41ZM117.79,157.55c.07-.07.07-.21.07-.34l-.07.07v.21q-.07.07-.07.14t.07.07v-.14ZM118.33,156.12c.14-.27.27-.55.34-.82s.2-.48.27-.55c.14-.21.14-.34.07-.34-.07-.07-.14.14-.27.55-.21.48-.34.89-.55,1.23-.41,1.16-.34,1.09.14-.07ZM117.99,155.84q-.07.07,0,.07l.07-.07c.07-.14.14-.21.21-.27,0-.07-.07,0-.21.07q-.07.07-.07.14v.07ZM123.73,152.63c-.07.07-.14.14-.07.14,0,0,0-.07.07-.14s.07-.07.14,0q-.07.07,0,.07c.07-.07,0-.14-.07-.27v-.07.07c-.07.07-.07.14-.07.21ZM124.01,152.15q-.07.07-.07.14v.07q-.07.07,0,.07l.14-.14v-.21q.07-.07,0-.07-.07.07-.07.14ZM124.21,152.29q0,.07-.07.14-.07.07,0,.14l.07-.07c.07-.07.07-.21.07-.27l-.07.07ZM127.42,165.68c-.55-.34-.82-.82-.89-1.44s.07-1.64.41-3.01c.21-.89.41-1.57.62-2.05.21-.48.48-1.09.96-1.98.62-1.3,1.37-2.46,2.26-3.49.89-1.03,1.78-1.91,2.73-2.67,1.03-.89,1.98-1.3,2.73-1.3.21,0,.41,0,.55.07s.41.14.75.34c.55.34.89.68.96.89.34.62.48.89.55.82.07-.07.21,0,.55.21.34.21.55.41.62.48.14.27.2.68.14,1.16s-.41,1.44-.89,2.73c-.21.48-.34,1.09-.55,1.71-.21.62-.41,1.23-.62,1.85-.2.62-.34,1.23-.41,1.71-.14.55-.21.96-.27,1.16-.07.34-.14.75-.07,1.09,0,.41.07.68.14.75,0,.07.14.07.48-.07s.68-.34,1.03-.55c1.44-.82,3.35-2.73,5.88-5.67.21-.34.48-.62.75-.96.21-.27.41-.55.62-.75.21-.27.48-.55.68-.75.07,0,.14,0,.2.07s-.07.27-.27.55c-.2.21-.41.48-.75.89-.34.41-.68.82-1.03,1.23-.34.48-.75.89-1.09,1.3-.41.48-.75.82-1.03,1.09-.48.55-.82.89-.89.96-.14.14-.07.14.14,0,.07-.07.27-.27.55-.55.2-.27.55-.62.89-.96.34-.34.68-.75,1.03-1.16.34-.41.68-.75.96-1.09.14-.14.34-.34.55-.62.21-.21.41-.48.62-.68.21-.21.34-.41.48-.62.14-.14.21-.21.21-.21,0,.07.07.07.14,0v.41c.07-.07.07,0,0,.07-.07.14,0,.14.07,0,.14-.14.2-.21.2-.27l-.07.07q-.07.07-.07,0c0-.21.07-.21.2-.14.07.07.07.14-.07.34-.2.21-.27.27-.2.34,0,.07.07,0,.2-.21.21-.27.34-.27.41,0,0,.07-.21.41-.62.89-.41.55-.82,1.09-1.23,1.71-.89,1.03-1.78,2.05-2.67,3.01-.89,1.03-1.5,1.71-1.85,2.12-1.91,1.71-3.55,2.39-4.99,1.91-.41-.07-.68-.21-.75-.27-.14-.07-.34-.27-.62-.62-.14-.21-.27-.41-.34-.62s-.14-.41-.21-.68c-.2-.62-.27-1.23-.2-1.71s.2-1.3.41-2.32l.41-1.85-1.03,1.57c-.75,1.16-1.5,2.12-2.19,3.01-.68.89-1.23,1.5-1.57,1.85-.68.75-1.3,1.16-1.91,1.23-.21.07-.48,0-.82-.07s-.68-.14-.89-.27ZM135.15,152.56c-.89.75-1.78,1.71-2.67,2.8-.89,1.16-1.64,2.32-2.26,3.62-.34.75-.68,1.57-.96,2.53-.34.96-.48,1.71-.55,2.32v.27l.34-.27c.07-.07.2-.21.41-.34.14-.14.27-.27.41-.41.41-.48,1.03-1.23,1.85-2.32.82-1.09,1.78-2.46,2.94-4.03.21-.34.48-.68.75-1.09.21-.41.41-.75.62-.96.34-.34.48-.62.55-.75.07-.14.14-.34.21-.62.07-.34.14-.68.14-1.03-.07-.34-.07-.55-.07-.62-.07-.07-.27-.07-.62.07-.34.21-.75.48-1.09.82ZM129.61,156.25c-.21.41-.34.62-.34.68-.07.07.07-.07.34-.41.07-.14.27-.34.48-.68s.48-.62.68-.96c.21-.34.48-.68.75-1.03.27-.34.48-.62.62-.82l-.34.34c-.89.96-1.57,1.91-2.19,2.87ZM136.79,154.34c.07-.07.07,0-.07.21-.21.21-.34.41-.55.68-.21.34-.41.62-.62.89-.2.34-.41.55-.48.68-.07.07-.27.34-.55.68l-.82,1.23c-.62.89-1.23,1.78-1.85,2.53-.62.75-1.09,1.44-1.44,1.91-.07.07-.14.21-.21.27s-.21.21-.27.27-.07.14-.14.21l.55-.55c.34-.41.89-1.09,1.57-1.98.62-.89,1.57-2.12,2.73-3.83.27-.34.55-.75.82-1.16s.55-.75.75-1.03c.21-.21.34-.48.48-.68.07-.21.14-.27.07-.34ZM131.66,155.5c.21-.27.27-.48.34-.55s.07-.14.14-.21c-.07,0-.34.27-.68.82-.34.55-.68,1.03-.96,1.37-.27.62-.41.89-.41.89-.07.07.14-.21.48-.75.21-.21.34-.48.55-.82.21-.27.34-.55.55-.75ZM130.29,156.53l.14-.14c.14-.21.2-.34.2-.41s-.07-.07-.14.14c-.14.21-.21.34-.21.41ZM130.36,156.73c0,.21.07.21.14,0,0-.07,0-.14.07-.21.07-.07.07-.14.14-.21l.14-.21-.27.21c-.07.07-.07.14-.14.21-.07.07-.07.14-.07.21ZM130.77,155.64c0,.07.07,0,.27-.14.07-.07.07-.14.14-.21s.07-.07.07-.14h-.07l-.14.14c-.07.21-.21.27-.27.34ZM136.58,156.32c0-.07-.2.21-.55.68-.34.48-.82,1.16-1.3,1.91s-.96,1.44-1.44,2.05c-.48.62-.75,1.09-.89,1.3-.41.48-.55.75-.48.75.07-.07.14-.21.21-.27s.21-.27.41-.55c.27-.41.68-.96,1.16-1.57.48-.62.89-1.3,1.37-1.91.41-.62.75-1.23,1.09-1.71.27-.48.41-.68.41-.68ZM132.21,161.92l.07-.07q.07-.07.07-.14l.07-.07c0-.07-.07,0-.14.07s-.07.14-.07.21ZM132.62,161.24s.07-.07.27-.21c.2-.27.27-.41.27-.41,0,0-.07.07-.21.21-.21.21-.34.34-.34.41ZM133.16,160.42c0,.07.07,0,.2-.14s.2-.27.2-.34l-.14.14c-.07.07-.14.14-.14.21l-.14.14ZM133.78,159.6h.07l.14-.14c.14-.14.2-.27.2-.34q.07-.07,0-.07c-.07.07-.07.14-.14.21s-.07.14-.14.21-.14.07-.14.14ZM134.39,159.19c0-.07-.07,0-.14.07,0,.07-.07.14-.14.21q-.07.07,0,.07l.07-.07c.14-.07.2-.21.2-.27ZM134.39,158.71c0,.07.07.07.14,0,0-.07.07-.21.14-.27q-.07,0-.14.07-.07.07-.07.14l-.07.07ZM134.67,158.58c0,.07-.07.21-.14.27q.07,0,.14-.07.07-.07.07-.14l.07-.07c0-.07-.07-.07-.14,0ZM134.67,158.23c0,.07.07,0,.27-.14l.14-.14.07-.14c0-.07-.07,0-.21.14,0,.07-.07.14-.14.21q-.07,0-.14.07ZM135.15,157.96c0,.07-.07.14-.14.21s-.07.07,0,.07c0,0,.07-.07.14-.14s.14-.14.14-.21q.07-.07,0-.07-.07.07-.14.14ZM135.15,157.62c0,.07.07,0,.21-.14.07-.21.14-.27.2-.34,0-.07-.07,0-.2.14-.07.07-.07.14-.14.21q-.07.07-.07.14ZM135.56,156.94c0,.07.07,0,.27-.14.14-.14.2-.27.2-.34v.07c.07,0,0,.07-.2.14l-.27.27ZM136.51,155.84c0-.07-.07,0-.21.07-.07.07-.07.14-.07.21l.07-.07.21-.21ZM145.94,159.26c-.14,0-.21-.14-.14-.34.07-.21.14-.41.34-.48.07-.07.14-.21.2-.41.07-.14.21-.41.34-.89,1.44-4.44,2.94-8.13,4.44-11.21,1.44-3.01,2.87-5.19,4.24-6.56.34-.34.55-.55.75-.62.14-.07.27-.14.48-.14.14,0,.41.07.75.21.34.21.55.34.62.48.07.07.14.21.14.34,0,.21-.07.27-.14.27-.34.07-.62.14-.75.27s-.48.55-.96,1.23c-1.09,1.44-2.19,3.42-3.35,5.88-1.16,2.53-2.32,5.47-3.49,8.95-.14.48-.27.89-.41,1.3s-.27.68-.34.82l-.07.41h.34c.55,0,1.44-.21,2.73-.55,1.23-.34,2.67-.89,4.24-1.5.21-.07.48-.21.68-.27.2-.07.41-.14.62-.21s.41-.21.62-.27c.07.07.14.14.14.21-.07.07-.07.14,0,.14.14-.07.27-.14.41-.14.07.07.14.14.07.21h.07c.07-.07.14,0,.14.07q-.07.07,0,.07l.07-.07c.07,0,.14,0,.14.07v.07h.07q0,.07.07.07v.27c.14.07.07.21-.14.34-.27.21-.82.48-1.57.82-3.21,1.44-5.54,2.26-6.97,2.46l-.75.14.41.82c.2.48.41.96.62,1.44.2.48.27,1.03.27,1.5v1.5c-.07.62-.07,1.16-.14,1.78-.07.62-.2,1.23-.27,1.78-.07.62-.2,1.09-.34,1.5-.27.89-.62,1.71-.96,2.53-.41.82-.82,1.57-1.23,2.26s-.82,1.23-1.23,1.71-.75.75-1.09.89c-.34.07-.75.14-1.3.07-1.03-.21-1.5-1.16-1.57-2.8-.07-1.03,0-2.12.21-3.35.14-1.16.41-2.73.82-4.65.14-.62.34-1.37.55-2.26.2-.82.48-1.64.68-2.39.21-.75.34-1.5.55-2.12.14-.62.27-1.09.34-1.3.2-.21.2-.34.07-.34ZM147.65,161.72c-.07.21-.27.75-.48,1.78-.27,1.03-.55,2.19-.82,3.35-.27,1.23-.55,2.39-.75,3.49s-.34,1.85-.41,2.19c-.14.68-.21,1.37-.27,1.98-.07.68-.14,1.23-.07,1.57-.07.21-.07.34,0,.41,0,.07.07,0,.14-.07.07-.07.14-.14.27-.27.07-.14.21-.27.27-.48h0c.82-1.16,1.5-2.67,1.98-4.44.48-1.78.75-3.76.82-5.95.07-.62.07-1.3,0-1.98-.07-.62-.2-1.16-.27-1.5l-.2-.48-.21.41ZM146.22,175.66c.2-.48.27-.68.27-.68h0v.14c-.07.07-.14.21-.21.27s-.14.21-.21.27c-.07.14-.2.27-.27.41-.62.68-.68.89-.34.55.14-.07.27-.21.41-.41s.27-.34.34-.55ZM146.56,176c-.07.21-.14.34-.07.34,0,.07.07-.07.14-.27.07-.07.07-.21.14-.27.07-.07.07-.21.07-.27q.14-.21.07-.07c-.14.14-.27.34-.34.55ZM147.04,175.73c.2-.34.34-.48.34-.48-.07,0-.21.14-.41.48s-.27.48-.27.48c.07,0,.2-.14.34-.48ZM147.65,175.18c.07-.14.14-.21.07-.14-.07.07-.27.41-.62,1.03-.21.34-.34.48-.34.48.07-.07.2-.14.27-.27.07-.07.14-.21.2-.34s.2-.27.27-.41.07-.27.14-.34ZM154.01,141.7c-.2.34-.55.82-.89,1.44s-.55,1.03-.55,1.09.14-.21.48-.75c.07-.21.27-.55.62-.96s.62-.82.82-1.16c.14-.21.27-.41.41-.55.07-.14.2-.27.27-.41s.14-.27.2-.34c-.07.07-.27.27-.62.62-.34.41-.55.75-.75,1.03ZM154.07,143.34c.07-.21.14-.34.14-.41.07-.07.07-.14.14-.21-.07-.07-.14.14-.34.48-.2.34-.34.62-.41.68.07,0,.27-.21.48-.55ZM153.66,144.64v-.27q-.07.07-.07.14c0,.14,0,.21.07.14ZM154.42,142.38c-.07-.07-.14.07-.34.27-.2.27-.27.41-.27.48,0,.14.07,0,.27-.34.07-.07.14-.21.2-.27l.14-.14ZM155.58,141.29s-.07.07-.21.27c-.14.21-.27.48-.48.68-.2.27-.34.55-.48.75-.14.21-.21.34-.21.41s.07.07.14-.07.34-.48.75-1.09l.48-.96ZM154.55,141.97c0,.07.07.07.14-.07v-.07c-.07,0-.14.07-.14.14ZM159.54,165.27c-.62-.21-1.09-.55-1.5-1.03-.48-.48-.82-.96-1.03-1.57-.2-.75-.27-1.57-.2-2.46s.34-1.91.68-3.14c.34-1.16.75-2.19,1.09-3.01.34-.75.96-1.64,1.71-2.53,1.16-1.57,2.32-2.39,3.35-2.39.34,0,.82.14,1.37.41.55.34.89.62,1.03.89.75,1.3.41,3.01-1.09,5.13-.48.62-.89,1.09-1.37,1.44-.48.41-.89.68-1.23.82-.21.07-.41.14-.55.14-.21.07-.48.07-.82.07-.21-.07-.41-.07-.62-.07s-.27,0-.34-.07c-.07-.07-.14,0-.2.14s-.14.55-.27,1.3c-.27,1.03-.41,1.91-.34,2.53,0,.68.14,1.23.34,1.64.34.34.96.34,1.85-.14.89-.48,1.91-1.3,3.21-2.46.27-.21.68-.55,1.16-1.03.48-.48.96-.96,1.5-1.44.48-.48.96-.96,1.44-1.44.41-.48.68-.82.89-1.03q.07,0,.14.07c.2,0,.2.07.14.14-.07.07-.27.27-.55.55-.27.34-.55.68-.89,1.03-.55.55-.75.75-.62.68.07-.07.2-.14.41-.34.21-.21.41-.41.62-.62s.41-.48.62-.68c.2-.21.27-.34.34-.41.21-.21.34-.27.41-.27.07.07.07.21-.14.55-.07.07-.07.14-.07.14,0,.07,0,0,.07-.07s.14-.07.14,0,.07.07.14-.14c.14-.21.21-.27.27-.21,0,.07-.07.21-.21.41l-.2.21q-.07.07-.07.14c-.07.07,0,0,.07-.07s.2-.14.34-.27c.07-.34.2-.41.34-.27-.07.07-.14.14-.14.14l.07.07c.2.07-.48.96-1.91,2.53-1.16,1.16-2.12,2.19-2.87,2.94-.82.82-1.5,1.44-2.12,1.91s-1.16.75-1.64.96-.96.34-1.44.34c-.41,0-.82-.07-1.3-.14ZM159.95,152.9c-.34.48-.48.75-.48.82s.14-.21.48-.68c.21-.21.41-.48.62-.82.21-.27.34-.48.55-.68.27-.34.41-.55.41-.55-.21.07-.41.34-.75.75s-.62.82-.82,1.16ZM161.18,152.43c-.07,0-.2.21-.41.55-.27.34-.48.62-.55.82,0,.07.14-.07.41-.55.34-.48.55-.75.55-.82ZM161.18,152.9c-.07,0-.14.14-.34.41-.2.34-.34.55-.34.62-.07.07,0-.07.27-.41.21-.27.27-.41.27-.41.07-.07.07-.14.14-.21ZM162.07,152.15c-.07,0-.27.21-.55.62s-.48.75-.68,1.09c-.27.48-.41.75-.34.75,0,0,.14-.27.48-.75.14-.21.27-.48.48-.75.14-.21.27-.41.34-.55.14-.14.2-.21.2-.27q.07-.07.07-.14ZM163.78,151.4c-.48.34-.96.89-1.44,1.57-.55.75-1.03,1.5-1.44,2.32-.34.68-.48,1.03-.41,1.03h.14q.07,0,.14-.07h.07c.21-.07.55-.34,1.03-.68.48-.34.82-.75,1.03-1.09.48-.62.89-1.16,1.16-1.78.21-.62.34-1.09.27-1.44l-.07-.27-.48.41ZM163.37,154.82c.2-.27.41-.55.55-.82s.14-.34.07-.27c-.07.07-.14.21-.21.27-.21.27-.41.55-.62.75-.48.62-.62.89-.41.82.14-.07.34-.34.62-.75ZM164.05,154.89l.14-.21c.07-.07.14-.21.2-.27,0-.07.07-.21.14-.27l.14-.27-.2.27c-.07.07-.14.21-.2.27-.07.07-.07.21-.14.27l-.07.21ZM165.15,154.07l-.07.14c-.14.14-.27.27-.34.41-.34.48-.48.75-.55.75-.07.07.14-.14.48-.48.07-.21.21-.41.34-.55.07-.14.14-.21.14-.27ZM164.8,154.2c0-.07-.07-.07-.21.07-.14.21-.27.34-.34.55-.07.27-.07.21.14-.14.27-.27.41-.41.41-.48ZM166.03,160.15c-.07.07-.14.14-.14.21q-.07.07,0,0c.07,0,.14-.07.2-.14s.07-.14-.07-.07ZM167.2,159.05c-.07.07-.14.07-.14.07l-.07.07c0,.07.07.07.27-.14q.07-.07-.07,0ZM167.61,158.64c-.07.07-.14.14-.21.14q0,.07-.07.07c0,.07.07,0,.27-.14.07-.07.07-.14,0-.07ZM200.82,156.66c.07-.07.14,0,.21.14.07.21,0,.27-.07.34-.07.07-.34.21-.82.55-.48.34-.96.62-1.3.82-.34.21-.75.41-1.23.68-.48.34-1.03.62-1.57.96s-1.09.68-1.64,1.03c-.55.34-1.03.68-1.44.96l-1.16.75-.96,3.14c-.62,1.85-1.16,3.42-1.64,4.78-.48,1.44-1.03,2.73-1.5,3.9-.48,1.16-1.03,2.32-1.5,3.35-.48,1.03-1.09,2.12-1.71,3.21-2.26,3.76-4.31,6.15-6.29,7.04-.34.21-.82.34-1.3.41-.55.07-1.03,0-1.37-.07-.21-.07-.34-.07-.55-.14-.21-.07-.34-.14-.41-.21-.2-.21-.48-.41-.68-.75-.21-.34-.41-.62-.48-.89-.48-1.16-.34-2.87.48-5.13.89-2.26,2.26-4.85,4.24-7.86,1.57-2.32,3.21-4.37,4.92-6.08,1.71-1.71,3.62-3.42,5.88-5.06.14-.07.27-.21.34-.34.07-.14.21-.62.48-1.37.07-.34.2-.82.41-1.44.14-.55.27-1.03.34-1.37l.27-1.37-.82.96c-.82,1.03-1.5,1.85-1.98,2.46-.55.62-.96,1.16-1.3,1.57s-.68.75-.89.96c-.27.27-.55.55-.82.75-.89.75-1.57,1.23-2.05,1.44-.55.21-1.16.27-1.91.21-1.3-.21-2.05-.96-2.26-2.39-.07-.62-.14-1.09-.07-1.57.07-.48.14-1.16.34-2.12.2-.75.34-1.3.41-1.71.07-.34.21-.82.41-1.44.62-1.44,1.09-2.67,1.57-3.62.41-.96.75-1.5.96-1.57.14-.07.2-.07.27,0,0,.14-.07.34-.27.55-.07.14-.14.27-.21.41-.14.14-.21.27-.21.34,0,0,.14-.14.48-.48.21-.27.27-.41.34-.48.07-.07.07-.14.14-.21v.07c-.07.07,0,.07.07.07.07-.07.14-.07.14,0s-.07.21-.14.48l.07-.07c.07-.07.07-.14.14-.21q.07,0,0,.07c0,.21.07.21.14,0,.14-.14.27-.14.34,0,.14.14.2.27.2.41-.07.07-.14.41-.34.89s-.41,1.03-.62,1.57c-.21.62-.41,1.16-.62,1.71-.2.62-.34,1.03-.41,1.23-.21.62-.34,1.44-.48,2.39-.2.96-.27,1.64-.34,2.05,0,.34,0,.75.07,1.16.07.41.14.62.21.62s.34-.21.82-.55c.48-.34.89-.68,1.37-1.03.75-.68,1.57-1.44,2.32-2.32s1.78-2.12,3.08-3.69c.34-.48.75-.96,1.09-1.37.34-.41.55-.68.62-.75.21-.21.41-.34.62-.34s.55.14,1.03.34c.55.21.89.48.96.75.2.34.27.82.2,1.3-.07.55-.14,1.44-.34,2.6l-.48,2.12.27-.21c.21-.14.48-.34.82-.55.34-.21.68-.41,1.09-.62.41-.21.82-.48,1.23-.68.34-.21.68-.34.96-.48.34-.21.68-.34,1.03-.55s.68-.34,1.03-.55c.41-.21.82-.41,1.16-.62q.07.07,0,.14c-.07.07-.07.14,0,.14.14-.07.21-.07.14,0s-.07.07,0,.14.2.07.34.07q.07,0,.07.07c-.07.07-.07.14.07.14ZM176.83,187c1.09-.62,2.32-1.85,3.62-3.83,1.03-1.57,2.05-3.35,3.08-5.33.96-1.98,1.85-4.03,2.6-6.15.14-.27.34-.75.55-1.37s.41-1.23.62-1.85c.2-.62.34-1.16.55-1.64.14-.48.2-.82.27-.89,0-.07-.07-.14-.14-.07-.07.07-.34.34-.82.68-1.16,1.03-2.32,2.19-3.49,3.42-1.16,1.23-2.19,2.53-3.21,3.83-1.03,1.37-1.91,2.73-2.67,4.1-.82,1.3-1.5,2.6-2.05,3.9-.14.34-.27.68-.34,1.03-.07.27-.2.75-.34,1.37-.07.68-.14,1.16-.21,1.37-.07.21,0,.48.07.68,0,.14.07.27.14.48.07.14.14.27.21.34.07.21.2.27.27.34.07,0,.2,0,.41-.07.14-.07.41-.14.89-.34ZM175.53,178.73c.07,0,.14-.14.34-.34.14-.27.34-.62.55-.96.48-.89,1.16-1.91,1.98-3.14s1.57-2.26,2.26-3.08c.62-.75.89-1.23.96-1.3,0-.07-.27.21-.82.82-.82,1.03-1.57,1.98-2.26,2.94-.68.96-1.37,1.98-1.98,3.14-.34.62-.62,1.16-.82,1.5s-.27.48-.2.41ZM176.08,178.8c0,.07.07,0,.14-.07.07-.14.21-.41.41-.75.2-.27.27-.48.34-.55,0-.07,0-.14.07-.21,0,0-.07.07-.14.21-.14.14-.27.34-.34.55s-.2.34-.27.55c-.14.14-.2.21-.2.27ZM176.28,178.87c0,.07.07.07.14-.07s.21-.41.41-.75c.27-.48.41-.75.34-.75,0,0-.07.07-.14.21-.07.14-.2.34-.27.55-.14.21-.27.34-.34.55-.07.14-.14.21-.14.27ZM179.09,174.77c-.07,0-.21.21-.48.62-.27.48-.55.96-.89,1.5-.34.48-.68,1.03-.96,1.5s-.41.68-.41.75.07,0,.2-.21.41-.62.75-1.3c.21-.34.41-.68.68-1.03.2-.41.41-.75.55-1.03.48-.55.62-.82.55-.82ZM177.31,176.75s-.07,0-.14.07c-.07.07-.07.14-.07.21s0,.07.07.07v-.14l.07-.07q0-.07.07-.14ZM177.45,176.82l-.07.07c-.07.07-.07.14-.07.21l.07-.07c.07-.07.07-.14.07-.21ZM177.72,176.14c-.07.07,0,.07.07,0s.07-.14.07-.27q.07-.07,0-.07-.07.07-.07.14-.07.07-.07.14v.07ZM180.04,184.82c.21-.27.55-.68.89-1.23s.68-1.09,1.03-1.64c.14-.21.34-.55.55-.89.21-.41.48-.82.68-1.23.2-.41.41-.75.55-1.03.14-.34.2-.48.2-.55s-.07.07-.27.55c-.27.48-.62,1.09-.96,1.71-.41.62-.82,1.3-1.23,1.91-.41.62-.82,1.23-1.16,1.78-.34.55-.68.96-.96,1.3-.14.21-.21.27-.21.27,0,0,.07-.07.21-.21.07-.07.2-.21.34-.34s.27-.27.34-.41ZM181.96,183.18c.07-.07.07-.14.14-.21q.07-.07.07-.14l-.21.21-.14.14q-.07.07-.07.14c0,.07.07,0,.2-.14ZM185.17,178.67c.41-.82.62-1.23.55-1.16s-.27.48-.75,1.3c-.2.34-.55.89-.89,1.57-.34.62-.68,1.23-1.03,1.71-.14.27-.27.55-.41.75-.14.21-.27.34-.34.55-.14.21-.27.34-.34.55.07,0,.21-.27.55-.75.34-.48.82-1.23,1.37-2.12.48-.89.96-1.71,1.3-2.39ZM182.23,182.7c.07-.07.07-.14.14-.21.14-.14.27-.34.41-.62.14-.21.27-.48.48-.82s.34-.62.48-.89c.14-.27.27-.48.34-.68s.14-.34.14-.34c0-.07-.07.07-.27.41s-.41.68-.68,1.16c-.21.48-.41.89-.62,1.23-.21.34-.34.55-.34.62-.2.07-.2.14-.07.14ZM182.84,182.15q-.07,0-.07.07l-.14.14v.07q0,.07.07,0,0-.07.07-.14.07-.07.07-.14ZM184.83,178.53c-.27.48-.55.96-.82,1.37-.21.34-.41.75-.62,1.16-.2.34-.34.62-.41.82s-.14.21-.07.14c.07-.07.14-.27.27-.48.14-.21.27-.48.48-.82s.34-.62.48-.89c.07-.21.21-.34.27-.48.07-.21.14-.34.21-.41.07-.14.14-.27.21-.41ZM183.39,151.4c-.07.07,0,.07.07-.07.07-.07.07-.21.14-.27l-.14.07c-.07.07-.07.21-.07.27ZM185.03,177.98q0,.07-.07.14c-.07.07-.07.14-.07.21,0,.14.07.14.14-.07,0-.07,0-.14.07-.21q.07-.07.07-.14c-.07-.07-.07,0-.14.07ZM185.44,177.23v-.07c-.07,0-.07.07-.07.14.07.07.07.14.07.14.07-.07.07-.14,0-.21ZM185.99,177.03v-.21c0-.07,0,0-.07.07,0,.07,0,.14.07.14ZM190.23,154.82c.2-.21.27-.34.14-.34-.07.07-.27.34-.68.82-.41.48-.89,1.09-1.44,1.85-.2.34-.48.68-.75,1.03-.34.34-.55.68-.75.89-.55.55-.75.82-.68.82,0-.07.14-.21.34-.41s.41-.41.62-.68c.2-.27.55-.62.89-1.09s.68-.89,1.03-1.23c.2-.34.48-.68.75-1.03s.48-.55.55-.62ZM229.04,156.73c0,.14-.14.48-.48.96-.34.55-.82,1.37-1.57,2.39-1.91,2.53-3.21,3.96-3.83,4.31-.34.14-.68.21-1.09.21-.48,0-.89-.14-1.23-.34-.68-.48-1.16-1.23-1.44-2.39-.21-.82-.34-1.64-.34-2.53-.07-.82,0-1.91.21-3.21l.21-1.3-.27.62c-.07.21-.21.41-.27.55-.14.21-.21.34-.27.41s-.21.27-.34.55c-.21.27-.34.55-.48.89-.62,1.03-1.37,2.19-2.12,3.35-.82,1.16-1.5,2.05-1.98,2.67-.62.68-1.16,1.09-1.57,1.3-.41.21-.89.27-1.5.21-.89-.21-1.5-.82-1.85-1.85-.14-.62-.21-1.16-.14-1.64,0-.48.07-1.16.27-2.05.2-.89.48-1.71.75-2.32.21-.62.62-1.44,1.16-2.32,1.44-2.6,2.94-4.24,4.65-4.99.55-.21,1.02-.34,1.44-.34.34.07.82.21,1.3.48.07.07.2.07.27.14.07.07.14.07.21.14.07,0,.21,0,.27.07l.07-.07s.07-.07.21-.27c.07-.21.21-.48.41-.89s.48-.96.82-1.71c.75-1.57,1.37-3.01,1.91-4.31.48-1.3.96-2.53,1.44-3.69.34-1.03.68-1.98,1.03-2.87.34-.89.62-1.64.89-2.32.21-.68.41-1.23.62-1.71.21-.41.34-.62.41-.68.14-.07.27-.14.34-.07s.07.14,0,.34l-.14.2.2-.2c.14-.14.27-.21.34-.14.07.07.07.14.07.27-.07.07,0,.07.07,0,.07-.07.14-.14.21-.14l-.07.07c0,.14.07.14.14.07.14,0,.14.07.07.14l.07.07c.07-.07.14-.07.2.14s.07.34,0,.55c0,.07-.07.27-.14.62-.14.34-.27.68-.41,1.03-1.3,3.42-2.32,6.7-3.21,9.84-.89,3.14-1.71,6.15-2.32,8.95-.21.96-.41,1.71-.55,2.32s-.21,1.16-.27,1.64-.14.89-.14,1.23v1.23c.07.34.14.82.21,1.3.07.48.07.89.14,1.09l.2.27.48-.34c.41-.34,1.03-.96,1.78-1.91.75-.89,1.64-2.05,2.6-3.42.21-.21.34-.41.48-.55.07-.14.21-.27.27-.41s.21-.27.27-.34c.07,0,.14,0,.21.07,0,.07-.07.21-.14.48-.2.21-.48.62-.82,1.09s-.75,1.03-1.16,1.57c-.48.55-.89,1.03-1.23,1.5-.34.48-.62.82-.82,1.03-.14.21-.27.41-.34.55-.14.14-.2.21-.14.14.2-.14.62-.55,1.16-1.23.55-.68,1.16-1.5,1.91-2.53.41-.62.82-1.16,1.23-1.71.41-.48.62-.75.68-.75h.07q0,.07.07.07h.14q0,.07.07.07c.07,0,.14,0,.21.07-.07.07-.07.21-.14.27-.07.07-.21.27-.48.62-.07.21-.27.48-.48.82-.07.14-.21.27-.34.41,0,0,.07-.07.21-.21.14-.14.27-.34.41-.55s.27-.41.48-.62c.14-.21.21-.34.27-.41.14-.34.27-.34.34,0ZM211.14,163.15c.07-.07.14-.21.2-.27.07-.07.21-.21.34-.34.07-.07.2-.21.27-.27.75-.75,1.5-1.78,2.39-3.08.82-1.3,1.64-2.67,2.46-4.24.48-.89.82-1.5.96-1.71.14-.21.2-.48.2-.68,0-.62-.14-.96-.34-.96-.07,0-.14.07-.34.14s-.34.21-.55.27c-.75.48-1.57,1.3-2.39,2.32s-1.57,2.26-2.19,3.69c-.27.62-.55,1.37-.75,2.19s-.34,1.5-.41,2.12c0,.55.07.82.14.82ZM211.55,155.23c.07-.21.27-.48.48-.75.2-.27.34-.55.41-.75.14-.21.27-.41.48-.62.14-.21.27-.34.34-.41.21-.21.27-.27.21-.21s-.27.21-.48.48c-.27.21-.48.48-.68.75-.21.34-.48.75-.82,1.23-.34.48-.48.82-.41.89,0,.07.14-.14.48-.62ZM211.89,155.64c0,.07.14-.07.41-.41.2-.34.27-.55.27-.62-.07.21-.21.34-.27.48-.21.27-.34.48-.41.55ZM213.46,161.38c.27-.34.55-.75.82-1.16s.55-.75.75-1.09c.2-.27.41-.62.62-.96s.41-.68.62-1.03c.14-.34.27-.62.41-.82.07-.21.14-.34.14-.34,0-.07-.07,0-.14.14-.07.21-.21.41-.27.62-.27.48-.62.96-.96,1.5-.41.62-.82,1.16-1.16,1.78-.41.62-.82,1.16-1.16,1.64-.34.48-.68.89-.96,1.23l-.27.41.34-.41c.07-.07.27-.27.55-.62.2-.27.48-.55.68-.89ZM212.03,155.98l.07-.14q.07-.07.14-.14c.07,0,.07-.07.14-.14.07-.21.14-.27.14-.34q.07-.07.07-.14c-.07-.07-.14.07-.27.34-.21.27-.27.48-.27.55ZM212.44,155.77c-.41.89-.41.96.07.07.27-.41.48-.82.68-1.16s.34-.48.34-.48c-.07,0-.2.21-.41.55-.21.34-.48.68-.68,1.03ZM212.85,154.68l.07-.07q-.07,0-.14.07-.07.07-.07.14l-.14.14s.07,0,.2-.07q0-.07.07-.14v-.07ZM217.42,157.21c.34-.62.55-.96.48-.89s-.27.48-.75,1.23c-.21.34-.41.68-.68,1.16-.27.48-.55.89-.82,1.3s-.55.82-.75,1.16c-.2.34-.41.62-.48.75-.2.21-.34.34-.27.34.07-.07.2-.21.27-.34s.27-.41.55-.75c.48-.68.89-1.37,1.37-2.12.48-.68.82-1.3,1.09-1.85ZM214.28,161.31c.07-.07.14-.21.21-.27,0-.07-.07,0-.27.21q-.07.14.07.07ZM215.03,160.22c.14-.14.2-.27.2-.41q.07-.07,0,0c-.07.07-.07.14-.14.21l-.27.27q0,.07-.07.14c0,.14.07.07.27-.21ZM215.03,160.42v.07q-.07.07-.07.14,0,.07.07.07v-.14l.2-.21c0-.07-.07,0-.2.07ZM217.08,156.87c-.27.48-.55.89-.82,1.23-.2.34-.41.68-.55.96-.2.27-.34.48-.41.55-.07.14.07,0,.41-.48.27-.48.55-.89.89-1.3.2-.55.41-.89.48-.96ZM217.56,156.46s-.07.14-.21.34c-.14.21-.27.48-.48.75-.2.34-.41.62-.62.96-.2.34-.34.55-.41.75q-.07.14,0,.07c.07-.07.14-.27.27-.48.14-.21.27-.41.41-.68.14-.21.27-.41.41-.62.14-.27.27-.55.41-.75.14-.21.21-.27.21-.34ZM226.72,159.53c.14-.21.27-.34.34-.48s.14-.21.07-.21l-.14.21c-.07.07-.07.14-.14.21s-.21.21-.27.27l-.41.68c.07,0,.21-.21.55-.68ZM229.38,165.27c-.62-.21-1.09-.55-1.5-1.03-.48-.48-.82-.96-1.03-1.57-.2-.75-.27-1.57-.2-2.46s.34-1.91.68-3.14c.34-1.16.75-2.19,1.09-3.01.34-.75.96-1.64,1.71-2.53,1.16-1.57,2.32-2.39,3.35-2.39.34,0,.82.14,1.37.41.55.34.89.62,1.03.89.75,1.3.41,3.01-1.09,5.13-.48.62-.89,1.09-1.37,1.44-.48.41-.89.68-1.23.82-.21.07-.41.14-.55.14-.21.07-.48.07-.82.07-.21-.07-.41-.07-.62-.07s-.27,0-.34-.07c-.07-.07-.14,0-.21.14-.07.14-.14.55-.27,1.3-.27,1.03-.41,1.91-.34,2.53,0,.68.14,1.23.34,1.64.34.34.96.34,1.85-.14.89-.48,1.91-1.3,3.21-2.46.27-.21.68-.55,1.16-1.03.48-.48.96-.96,1.5-1.44.48-.48.96-.96,1.44-1.44.41-.48.68-.82.89-1.03q.07,0,.14.07c.21,0,.21.07.14.14-.07.07-.27.27-.55.55-.27.34-.55.68-.89,1.03-.55.55-.75.75-.62.68.07-.07.21-.14.41-.34.2-.21.41-.41.62-.62.2-.21.41-.48.62-.68s.27-.34.34-.41c.21-.21.34-.27.41-.27.07.07.07.21-.14.55-.07.07-.07.14-.07.14,0,.07,0,0,.07-.07s.14-.07.14,0,.07.07.14-.14c.14-.21.21-.27.27-.21,0,.07-.07.21-.2.41l-.21.21q-.07.07-.07.14c-.07.07,0,0,.07-.07.07-.07.21-.14.34-.27.07-.34.21-.41.34-.27l-.14.14.07.07c.21.07-.48.96-1.91,2.53-1.16,1.16-2.12,2.19-2.87,2.94-.82.82-1.5,1.44-2.12,1.91s-1.16.75-1.64.96-.96.34-1.44.34c-.41,0-.82-.07-1.3-.14ZM227.47,157.82l.14-.14c.07-.07.07-.14.14-.21s.07-.07.07-.14-.07-.07-.14.14c-.14.14-.21.27-.21.34ZM227.81,157.28l.21-.27c.07-.07.14-.14.21-.21.07,0,0,.07-.07.14q0,.07.07,0c.07-.07.21-.21.34-.41q0-.14-.07-.07c-.07.07-.14.07-.07,0,0-.07-.07-.07-.14.07-.14.14-.27.27-.41.48l-.07.27ZM228.02,157.41c0-.07.07-.21.14-.27,0-.07-.07,0-.21.07v.07q-.07.07-.07.14c0,.07.07.07.14,0ZM229.79,152.9c-.34.48-.48.75-.48.82s.14-.21.48-.68c.21-.21.41-.48.62-.82.2-.27.34-.48.55-.68.27-.34.41-.55.41-.55-.21.07-.41.34-.75.75-.34.41-.62.82-.82,1.16ZM231.02,152.43c-.07,0-.21.21-.41.55-.27.34-.48.62-.55.82,0,.07.14-.07.41-.55.34-.48.55-.75.55-.82ZM231.02,152.9c-.07,0-.14.14-.34.41-.2.34-.34.55-.34.62-.07.07,0-.07.27-.41.21-.27.27-.41.27-.41.07-.07.07-.14.14-.21ZM231.91,152.15c-.07,0-.27.21-.55.62s-.48.75-.68,1.09c-.27.48-.41.75-.34.75,0,0,.14-.27.48-.75.14-.21.27-.48.48-.75.14-.21.27-.41.34-.55.14-.14.21-.21.21-.27q.07-.07.07-.14ZM233.62,151.4c-.48.34-.96.89-1.44,1.57-.55.75-1.03,1.5-1.44,2.32-.34.68-.48,1.03-.41,1.03h.14q.07,0,.14-.07h.07c.21-.07.55-.34,1.03-.68s.82-.75,1.03-1.09c.48-.62.89-1.16,1.16-1.78.21-.62.34-1.09.27-1.44l-.07-.27-.48.41ZM233.21,154.82c.2-.27.41-.55.55-.82.14-.27.14-.34.07-.27s-.14.21-.21.27c-.21.27-.41.55-.62.75-.48.62-.62.89-.41.82.14-.07.34-.34.62-.75ZM233.89,154.89l.14-.21c.07-.07.14-.21.21-.27,0-.07.07-.21.14-.27l.14-.27-.2.27c-.07.07-.14.21-.21.27s-.07.21-.14.27l-.07.21ZM234.99,154.07l-.07.14c-.14.14-.27.27-.34.41-.34.48-.48.75-.55.75-.07.07.14-.14.48-.48.07-.21.21-.41.34-.55.07-.14.14-.21.14-.27ZM234.65,154.2c0-.07-.07-.07-.21.07-.14.21-.27.34-.34.55-.07.27-.07.21.14-.14.27-.27.41-.41.41-.48ZM235.88,160.15c-.07.07-.14.14-.14.21q-.07.07,0,0c.07,0,.14-.07.21-.14s.07-.14-.07-.07ZM237.04,159.05c-.07.07-.14.07-.14.07l-.07.07c0,.07.07.07.27-.14q.07-.07-.07,0ZM237.45,158.64c-.07.07-.14.14-.21.14q0,.07-.07.07c0,.07.07,0,.27-.14.07-.07.07-.14,0-.07ZM239.16,164.59c-.34-.34-.55-.82-.62-1.37-.14-.55-.14-1.3-.07-2.26.07-.89.27-2.05.62-3.35.27-1.3.68-2.94,1.23-4.78.21-.96.48-1.91.75-2.8.2-.89.41-1.44.48-1.71.14-.27.27-.75.48-1.37s.41-1.3.62-1.91.41-1.5.75-2.53c.34-1.03.62-2.05.96-2.94.34-.89.62-1.78.96-2.8.34-.96.55-1.71.75-2.19.34-1.16.62-1.85.75-2.12.14-.27.27-.41.48-.41.14,0,.14.07,0,.27q-.07.14.07.07c.07-.07.14-.14.21-.14,0,0,.07.07.27.14.21.07.27.2.21.27-.07.07,0,.14.07.07.07-.14.14-.14.21,0s.07.62-.14,1.44c-.21.89-.48,1.64-.68,2.39-.07.34-.27.96-.62,1.91-.34,1.03-.68,2.05-1.03,3.21-1.85,5.81-3.21,10.39-4.1,13.6-.89,3.28-1.37,5.67-1.44,7.11.07.34.07.75.14,1.09.07.34.14.55.21.62.21.07.55,0,1.09-.34.48-.27,1.03-.62,1.57-1.03.34-.27.82-.68,1.37-1.23.48-.48,1.02-1.09,1.57-1.71.55-.62,1.09-1.16,1.57-1.78s.89-1.09,1.16-1.5c.14-.21.21-.34.21-.41q.07-.07.07-.14c.2.07.27.14.2.34-.07.14-.2.34-.41.68-.27.34-.55.68-.89,1.09-.34.41-.62.82-.96,1.23-.34.48-.68.82-.96,1.16-.34.34-.55.55-.68.75q-.21.21-.14.14c.2-.21.55-.48.89-.89.34-.41.75-.82,1.16-1.3.34-.48.75-.89,1.09-1.37s.62-.82.82-1.09c.07-.21.21-.34.34-.41.07-.07.14,0,.21.07l-.07.14s-.07.07-.14.27c-.14.21-.21.27-.27.34s0,.07.07,0c.07-.07.14-.07.14,0-.07.07,0,.07.07,0q.07-.07.14-.14c0-.07.07-.07.14-.14,0,0-.07,0-.27.07q-.07.07-.07,0c0-.07.07-.14.21-.21,0-.14.07-.14.14-.07s.07,0,0-.07c.07-.07.07-.14.07-.14.07.07.14.07.21.07l.07-.07c0,.07-.07.14-.14.21-.27.34-.27.41,0,.21.14-.21.27-.21.34,0-.07.21-.2.48-.41.82-.34.48-.75,1.03-1.23,1.64s-1.03,1.23-1.57,1.85-1.09,1.23-1.57,1.71c-.48.55-.96.96-1.3,1.23-1.57,1.16-2.94,1.64-4.1,1.3h0c-.27-.07-.48-.21-.62-.27-.21-.07-.41-.27-.62-.55ZM244.9,161.99c-.27.21-.34.27-.27.27l.14-.07.21-.21c.07-.07.14-.14.14-.21q.07,0,.07-.07l-.27.27ZM261.09,156.73c.07,0,0,.21-.34.68-.34.48-.82,1.03-1.37,1.71-.62.68-1.23,1.44-1.91,2.19-.75.82-1.44,1.57-2.05,2.32-1.03,1.23-1.85,2.12-2.39,2.67-.62.55-1.16.96-1.78,1.3-.21.07-.48.14-.82.21-.34.07-.68.14-.96.07-.75-.14-1.3-.41-1.64-.89-.34-.48-.55-1.16-.62-2.19-.07-1.03.21-2.53.68-4.37.48-1.85,1.09-3.76,1.85-5.67,1.09-2.73,1.85-3.96,2.32-3.62.07.07,0,.21-.14.41-.14.07-.21.21-.27.27-.07.14-.14.27-.2.34,0,.14.14,0,.34-.34.21-.27.41-.41.48-.48.07-.07.14-.07.21,0,.07.07.07.14.07.21,0,.14.07.14.14-.07.07-.07.14-.07.07,0,0,.07.07.07.14.07s.07,0,.07.07q.07.07.14.07v.14c0,.07.07.14.14.21.07,0-.27,1.3-1.16,3.83-.21.75-.48,1.5-.68,2.32-.27.89-.55,1.85-.89,2.94-.21.75-.34,1.37-.41,1.78-.14.48-.2.82-.27,1.09-.07.27-.07.48-.07.62-.07.21-.07.41-.07.62v.89c.07,0,.27-.07.62-.27s.62-.34.82-.55c.27-.21.75-.68,1.44-1.44.68-.68,1.44-1.44,2.26-2.32.82-.82,1.64-1.71,2.46-2.6.75-.89,1.44-1.57,1.91-2.19.27-.34.41-.55.48-.62l.14-.14c.14,0,.21.07.21.21,0,.07-.27.34-.75.89-.48.62-1.09,1.3-1.71,2.05-.68.75-1.37,1.57-2.05,2.32-.68.75-1.23,1.37-1.57,1.78-.34.34-.55.62-.68.82q-.21.21-.14.14c.07-.07.41-.41.96-1.03.48-.55,1.09-1.16,1.78-1.91.62-.75,1.3-1.44,1.91-2.19.62-.68,1.09-1.23,1.44-1.64.41-.48.68-.82.89-1.03s.27-.27.34-.27c.07.07.07.21-.14.55q-.07.21.07.07.07-.07.07,0c0,.07.07.07.14,0q0-.07.07-.14c.07-.07.07-.14,0-.21v-.07c.07.07.14.14.14.07.14-.07.14.07-.07.41-.21.21-.34.34-.27.34,0,0,.14-.14.34-.34.07-.34.2-.41.34-.27q-.07.07-.07.14,0,.07.07.07ZM249.34,157.41l-.21.21c0,.07.07.07.14,0,.07-.07.14-.07.07,0q0,.07.07,0c.14-.14.21-.21.21-.27s-.07,0-.14.07-.14.07-.07,0q0-.07-.07,0ZM249.61,157.62l-.41.55c-.07.07,0,0,.21-.21s.34-.41.41-.55c.07-.07.07-.14,0-.07-.07.07-.14.21-.21.27ZM252.96,148.46v-.07c-.07-.07-.07-.14-.07-.27,0-.21.07-.48.21-.82.07-.34.2-.68.34-1.03.14-.34.27-.62.41-.89.14-.21.27-.34.34-.34.27,0,.34.07.27.27v.07c.07-.07.21-.14.27-.07.07.07.14.21.14.27q-.07.07,0,.07c0,.07,0,0,.07-.07s.07-.07.14,0v.07c.07-.07.14-.07.27,0,.14.07.2.21.2.34.07.07.14.21.07.34-.07.14-.21.41-.41.75-.07.21-.21.48-.27.68-.14.27-.2.48-.27.55-.07.34-.14.48-.21.55-.07.07-.2.14-.34.14s-.21-.07-.21-.14q.07-.07,0-.07c-.07.07-.27.14-.48.07q-.07-.07-.14-.14c-.07-.07-.14-.07-.2-.14,0-.07-.07-.14-.14-.14Z"/>
  <path class="cls-1" d="M165,144.99l.03-.06c-.03-.06-.01-.15.04-.28.07-.17.22-.39.45-.66.23-.27.48-.54.73-.81.25-.27.49-.49.71-.67.22-.18.37-.25.46-.22.25.1.3.22.15.36l-.03.06c.12-.05.21-.03.27.07.06.1.07.19.04.27-.06.02-.08.05-.07.08.01.03.06.01.13-.06.06-.03.1,0,.13.05l-.03.06c.08-.07.16-.03.25.1.09.14.11.27.06.39.05.12.03.23-.06.34-.09.11-.31.29-.66.54-.17.18-.35.36-.55.55-.2.19-.34.32-.41.39-.2.26-.34.4-.4.43-.12.05-.24.05-.37,0-.13-.05-.17-.12-.14-.2.06-.03.07-.05.03-.06-.12.05-.28.01-.47-.12-.03-.06-.06-.12-.11-.19-.05-.07-.08-.13-.11-.19.03-.08,0-.14-.08-.18"/>
</svg>