<?xml version="1.0" encoding="UTF-8"?>
<svg xmlns="http://www.w3.org/2000/svg" xmlns:xlink="http://www.w3.org/1999/xlink" viewBox="0 0 708.66 343.06">
  <defs>
    <style>
      .cls-1 {
        opacity: .3;
      }

      .cls-2 {
        fill: none;
      }

      .cls-3 {
        isolation: isolate;
      }

      .cls-4, .cls-5 {
        fill: #b1a49a;
      }

      .cls-6 {
        fill: #60714f;
      }

      .cls-5 {
        mix-blend-mode: multiply;
      }

      .cls-7 {
        clip-path: url(#clippath);
      }

      .cls-8 {
        fill: #61714f;
      }
    </style>
    <clipPath id="clippath">
      <rect class="cls-2" x="-965.03" y="-3756.02" width="1224.79" height="3470.37"/>
    </clipPath>
  </defs>
  <g class="cls-3">
    <g id="Capa_1" data-name="Capa 1">
      <g>
        <g>
          <g>
            <path class="cls-6" d="M86.93,268.47c-10.38,2.08-20.74,4.27-31.08,6.57-4.95-22.17-9.91-44.33-14.86-66.5,3.65-.81,7.3-1.61,10.95-2.4,4.04,18.77,8.08,37.54,12.12,56.3,6.93-1.48,13.87-2.92,20.82-4.31.69,3.45,1.37,6.89,2.06,10.34Z"/>
            <path class="cls-6" d="M96.94,197.21c1.82,10.42,3.31,20.88,5.62,31.22,1.02,4.54,4.83,25.41,11.07,24.3,6.24-1.11,2.66-22.04,2.06-26.63-1.38-10.5-3.57-20.84-5.44-31.25,3.67-.63,7.35-1.25,11.03-1.85,2.18,13.04,5.08,25.93,5.79,39.18.5,9.41,1.06,28.74-11.6,30.93-12.67,2.19-18.73-15.98-21.52-25.06-3.89-12.69-5.59-25.79-8.02-38.79,3.67-.69,7.33-1.37,11-2.05Z"/>
            <path class="cls-6" d="M163.18,186.76c3.81-.51,7.71-.02,11.29,1.35.44,3.49.88,6.98,1.32,10.47-3.88-1.17-7.3-1.76-11.21-1.36-11.09,1.14-14.47,16.48-12.95,25.56,1.49,8.88,7.77,22.54,19.19,21.07,3.7-.48,7.1-2.01,10.15-4.14.44,3.49.88,6.97,1.32,10.46-2.96,2.18-6.43,3.64-10.07,4.12-16.87,2.26-29.11-15.18-31.37-29.91-2.35-15.3,4.97-35.31,22.34-37.63Z"/>
            <path class="cls-6" d="M211.98,181.08c17.4-1.86,29.12,16.14,30.34,31.5,1.17,14.76-6.71,34.78-23.63,36.31-16.82,1.52-28.54-16.19-30.3-30.97-1.82-15.36,6.31-34.99,23.59-36.83ZM213.02,191.57c-11.44,1.13-15.01,15.98-13.8,25.1,1.18,8.91,6.99,22.85,18.43,21.72,11.45-1.13,14.4-15.96,13.82-24.91-.6-9.16-7.02-23.04-18.45-21.91Z"/>
            <path class="cls-6" d="M311.15,174.74c3.83-.11,7.65.78,11.06,2.52.1,4.56.19,9.12.29,13.68-2.61-3.4-6.82-5.73-11.05-5.66-11.33.18-16.07,14.91-15.49,24.08.56,8.95,5.28,23.12,16.74,22.95-.23-7.87-.46-15.75-.69-23.62,3.63-.1,7.25-.19,10.88-.27.22,10.46.45,20.92.67,31.38-3.16,1.86-6.75,2.95-10.42,3.06-17.01.5-27.32-18.15-28.04-33.01-.75-15.43,8.56-34.6,26.06-35.1Z"/>
            <path class="cls-6" d="M364.52,174.19c17.49,0,27.2,19.17,26.78,34.55-.41,14.79-10.36,33.86-27.34,33.58-16.88-.28-26.62-19.16-26.78-34.03-.17-15.45,9.97-34.11,27.35-34.1ZM364.43,184.73c-11.49-.1-16.61,14.3-16.38,23.48.23,8.98,4.49,23.46,15.99,23.56,11.5.1,16-14.34,16.38-23.29.38-9.16-4.51-23.66-15.99-23.75Z"/>
            <path class="cls-6" d="M417.97,175.63c-.56,10.56-1.45,21.09-1.51,31.68-.03,4.64-.98,25.85,5.33,26.16,6.31.31,7.5-20.9,7.94-25.49,1.01-10.54,1.19-21.11,1.69-31.67,3.71.21,7.42.43,11.13.66-.79,13.2-.85,26.41-3.12,39.48-1.61,9.25-5.37,28.25-18.17,27.55-12.81-.7-14.62-19.8-15.3-29.24-.95-13.24.32-26.39.87-39.6,3.71.14,7.43.3,11.14.47Z"/>
            <path class="cls-6" d="M477.55,179.61c18.81,1.59,19.4,28.95,8.61,39.74,6.57,7.53,3.23,20.91,2.3,29.73-3.52-.35-7.05-.69-10.58-1.02.72-6.37,5.69-22.99-4.53-24.14-2.56-.22-3.84-.33-6.4-.55-.65,7.85-1.3,15.7-1.95,23.55-3.53-.29-7.06-.57-10.59-.84,1.7-22.65,3.4-45.3,5.1-67.95,6.02.46,12.03.95,18.04,1.47ZM474.59,213.44s0-.03,0-.06c5.57.4,7.58-7.39,7.88-11.49.28-3.76-.6-11.5-5.84-11.77-2.75-.24-4.12-.36-6.88-.59-.64,7.78-1.29,15.55-1.93,23.33,2.71.22,4.06.34,6.76.58Z"/>
            <path class="cls-6" d="M528.55,185.01c1.13,19.47,2.12,38.96,2.99,58.44,5.87-18.6,11.88-37.16,18.01-55.68,3.72.52,7.43,1.05,11.15,1.6-.74,22.84-1.6,45.68-2.58,68.51-3.51-.54-7.02-1.06-10.53-1.57.41-11.69.79-23.37,1.14-35.06-4.25,11.19-8.89,22.22-13.29,33.36-3.51-.48-7.02-.94-10.54-1.39-1.37-11.89-3-23.75-4.21-35.66-2.69,11.38-5.34,22.77-7.97,34.16-3.52-.42-7.04-.82-10.56-1.21,4.96-22.31,10.04-44.59,15.23-66.85,3.73.44,7.45.88,11.17,1.34Z"/>
            <path class="cls-6" d="M583.77,192.96c10.95,1.81,21.89,3.73,32.8,5.77-.65,3.46-1.3,6.91-1.95,10.37-7.2-1.34-14.4-2.64-21.62-3.89-1.32,7.69-2.64,15.38-3.97,23.07,4.67.81,9.34,1.64,14,2.48.19,3.61.37,7.22.54,10.82-5.44-1-10.88-1.97-16.33-2.91-.74,4.3-1.48,8.6-2.22,12.9,6.98,1.21,13.94,2.46,20.9,3.76-.65,3.45-1.3,6.91-1.95,10.36-10.39-1.94-20.81-3.77-31.24-5.5,3.67-22.41,7.35-44.83,11.02-67.24Z"/>
            <path class="cls-6" d="M626.94,211.47c.68-3.45,1.36-6.9,2.04-10.35,11.81,2.34,23.58,4.82,35.33,7.43-.77,3.43-1.53,6.86-2.3,10.29-4.02-.9-8.05-1.78-12.08-2.64-4.02,18.77-8.05,37.54-12.07,56.31-3.48-.75-6.96-1.48-10.44-2.2,3.88-18.8,7.75-37.6,11.63-56.4-4.03-.83-8.07-1.64-12.11-2.44Z"/>
          </g>
          <g>
            <path class="cls-8" d="M57.95,280.23l-15.15-67.76.63-.14c3.64-.81,7.33-1.62,10.95-2.4l.64-.14,12.12,56.3c6.7-1.43,13.49-2.84,20.19-4.18l.64-.13,2.31,11.61-.64.13c-10.32,2.07-20.78,4.28-31.07,6.57l-.63.14ZM44.35,213.45l14.58,65.23c9.89-2.19,19.91-4.31,29.83-6.3l-1.81-9.07c-6.7,1.34-13.48,2.75-20.17,4.18l-.63.14-12.12-56.3c-3.21.69-6.46,1.41-9.68,2.12Z"/>
            <path class="cls-8" d="M116,268.35c-12.19,0-17.86-18.5-20.07-25.7-2.94-9.6-4.67-19.59-6.33-29.25-.54-3.15-1.11-6.41-1.7-9.61l-.12-.64.64-.12c3.63-.69,7.34-1.37,11.01-2.05l.64-.12.11.64c.52,2.98,1.02,6.02,1.51,8.96,1.21,7.31,2.46,14.87,4.11,22.23.09.39.19.89.32,1.49.68,3.19,1.93,9.13,3.72,14.12,2.06,5.73,4.23,8.56,6.29,8.2,2.06-.37,3.12-3.78,3.09-9.88-.03-5.3-.89-11.31-1.35-14.53-.09-.6-.16-1.1-.21-1.49-.98-7.51-2.41-15.07-3.79-22.38-.55-2.89-1.11-5.88-1.64-8.83l-.12-.64.65-.11c3.66-.63,7.37-1.25,11.03-1.85l.64-.11.11.64c.54,3.25,1.14,6.54,1.72,9.73,1.74,9.61,3.55,19.54,4.08,29.53.42,8,1.55,29.24-12.13,31.6-.75.13-1.47.19-2.18.19ZM89.29,204.19c.55,3,1.08,6.04,1.59,8.99,1.66,9.62,3.37,19.57,6.3,29.09,2.25,7.33,8.22,26.79,20.79,24.61,11.25-1.94,11.7-18.2,11.06-30.25-.53-9.91-2.32-19.8-4.06-29.37-.54-2.98-1.1-6.06-1.61-9.11-3.24.54-6.51,1.09-9.74,1.64.49,2.73,1.02,5.5,1.52,8.18,1.38,7.33,2.81,14.91,3.8,22.46.05.38.12.88.21,1.48,1.65,11.52,2.82,24.88-2.79,25.87-.2.04-.41.05-.61.05-5.26,0-8.58-12.41-10.9-23.38-.13-.59-.23-1.09-.32-1.48-1.65-7.39-2.91-14.97-4.12-22.3-.45-2.72-.91-5.53-1.39-8.3-3.24.59-6.51,1.2-9.72,1.81Z"/>
            <path class="cls-8" d="M171.79,259.56c-8.45,0-14.72-4.75-18.63-9-5.29-5.75-9.17-13.85-10.37-21.67-1.55-10.09,1-21.04,6.64-28.58,4.15-5.54,9.77-8.92,16.25-9.79h0c3.87-.52,7.88-.04,11.61,1.39l.36.14,1.49,11.84-.96-.29c-4.25-1.29-7.53-1.69-10.95-1.34-3.22.33-5.94,1.94-8.11,4.77-4.11,5.39-5.25,14.16-4.27,20.03,1.51,9.01,7.68,21.92,18.46,20.53,3.32-.43,6.64-1.78,9.86-4.02l.88-.61,1.5,11.9-.31.23c-3.1,2.28-6.68,3.75-10.37,4.25-1.06.14-2.1.21-3.1.21ZM165.86,191.82h0c-6.13.82-11.45,4.03-15.38,9.28-5.36,7.16-7.87,17.99-6.4,27.6,1.16,7.57,4.92,15.42,10.04,20.98,3.73,4.05,9.69,8.58,17.69,8.58.94,0,1.91-.06,2.91-.2,3.35-.45,6.61-1.75,9.46-3.78l-1.14-9.03c-3.12,2.01-6.33,3.24-9.55,3.65-.6.08-1.19.11-1.77.12-10.59,0-16.63-12.7-18.14-21.72-1-5.96-.02-15.09,4.51-21.04,2.39-3.14,5.42-4.91,9.01-5.28,3.34-.34,6.53-.01,10.51,1.11l-1.15-9.09c-3.42-1.24-7.08-1.65-10.61-1.18Z"/>
            <path class="cls-8" d="M219.32,254.04c-7.09,0-13.89-3.39-19.33-9.69-5.12-5.93-8.73-14.13-9.65-21.95-1.19-10.02,1.72-20.81,7.58-28.17,4.34-5.45,10.08-8.69,16.58-9.39l.07.65-.07-.65c6.43-.69,12.62,1.27,17.9,5.65,7.19,5.96,12.35,16.34,13.15,26.44.62,7.87-1.29,16.65-5.11,23.48-3.17,5.67-9.06,12.61-19.11,13.52-.68.06-1.35.09-2.02.09ZM217.01,186.01c-.78,0-1.57.04-2.37.13-6.15.66-11.58,3.74-15.7,8.91-5.66,7.09-8.46,17.52-7.31,27.2.9,7.57,4.39,15.51,9.35,21.25,4.01,4.65,10.78,10.01,20.25,9.15,16.75-1.52,24.14-21.65,23.04-35.61-.77-9.77-5.75-19.8-12.68-25.55-4.35-3.61-9.35-5.48-14.57-5.48ZM218.94,243.52c-10.83,0-16.55-13.14-17.77-22.35-.78-5.89.42-14.82,4.92-20.5,2.51-3.16,5.69-4.96,9.46-5.33l.06.65-.06-.65c3.76-.37,7.23.76,10.31,3.37,5.53,4.69,8.47,13.21,8.85,19.14.63,9.65-2.68,24.44-14.4,25.6-.46.05-.92.07-1.37.07ZM215.68,196.63c-3.41.34-6.29,1.97-8.57,4.84-4.26,5.38-5.4,13.89-4.65,19.52,1.21,9.09,6.92,22.22,17.73,21.16,10.8-1.07,13.83-15.07,13.23-24.22-.37-5.67-3.16-13.79-8.4-18.24-2.8-2.37-5.94-3.41-9.34-3.07h0Z"/>
            <path class="cls-8" d="M315.04,247.92c-9.72,0-16.2-5.95-19.96-11.02-4.65-6.26-7.66-14.72-8.04-22.62-.49-10.21,3.17-20.85,9.57-27.76,4.68-5.06,10.6-7.83,17.12-8.02,3.89-.11,7.83.78,11.37,2.59l.35.18.34,16.05-1.21-1.57c-2.6-3.4-6.64-5.47-10.53-5.41-3.33.05-6.26,1.42-8.72,4.08-4.73,5.11-6.49,13.59-6.14,19.31.55,8.88,5.12,21.95,15.42,22.33l-.69-23.59.65-.02c3.62-.1,7.28-.19,10.88-.27h.65s.69,32.39.69,32.39l-.33.19c-3.31,1.95-7.02,3.04-10.73,3.15-.24,0-.47.01-.7.01ZM313.75,179.16l.02.65c-6.16.18-11.76,2.81-16.2,7.61-6.07,6.56-9.7,17.09-9.23,26.81.37,7.65,3.28,15.84,7.78,21.9,3.58,4.82,9.74,10.49,18.93,10.49.22,0,.44,0,.66,0,3.37-.1,6.75-1.06,9.78-2.78l-.65-30.34c-3.17.07-6.39.15-9.57.24l.69,23.63h-.66c-5.31.1-9.81-2.81-13.03-8.37-2.4-4.15-4.03-9.83-4.37-15.18-.37-5.99,1.49-14.88,6.48-20.27,2.71-2.93,5.95-4.44,9.65-4.5,3.73-.06,7.57,1.64,10.38,4.52l-.25-11.49c-3.26-1.59-6.85-2.37-10.4-2.27l-.02-.65Z"/>
            <path class="cls-8" d="M366.94,247.39c-.13,0-.26,0-.4,0-7.84-.13-15.01-4.33-20.18-11.82-4.45-6.44-7.15-14.98-7.24-22.85-.11-10.1,3.93-20.53,10.55-27.21,4.89-4.94,10.92-7.55,17.44-7.55h.01c6.46,0,12.39,2.6,17.17,7.52,6.51,6.7,10.53,17.57,10.25,27.71-.22,7.89-3.05,16.41-7.58,22.8-3.7,5.23-10.17,11.41-20.03,11.41ZM367.11,179.25c-6.17,0-11.88,2.48-16.52,7.16-6.38,6.45-10.28,16.52-10.17,26.29.08,7.62,2.7,15.89,7.01,22.12,3.49,5.05,9.64,11.11,19.13,11.26.12,0,.24,0,.36,0,16.58,0,25.93-19.06,26.32-32.95.27-9.8-3.61-20.31-9.89-26.77-4.53-4.66-10.14-7.12-16.24-7.12h0ZM366.75,236.84s-.08,0-.12,0c-11.76-.1-16.39-14.52-16.63-24.19-.15-5.95,2-14.7,7.08-19.87,2.83-2.87,6.18-4.31,9.95-4.28h0c3.77.03,7.1,1.53,9.87,4.45,5,5.25,7.01,14.04,6.76,19.98-.4,9.63-5.24,23.91-16.91,23.91ZM366.92,189.79c-3.37,0-6.37,1.31-8.91,3.89-4.81,4.89-6.85,13.24-6.71,18.92.23,9.17,4.51,22.84,15.34,22.93.04,0,.07,0,.11,0,10.76,0,15.24-13.54,15.62-22.67.24-5.68-1.67-14.05-6.4-19.03-2.52-2.65-5.53-4.01-8.94-4.04-.04,0-.07,0-.11,0Z"/>
            <path class="cls-8" d="M424.55,249.09c-.24,0-.48,0-.72-.02-13.83-.76-15.34-21.89-15.91-29.84-.72-10.02-.16-20.14.38-29.92.18-3.19.36-6.5.49-9.75l.03-.65.65.03c3.69.14,7.43.3,11.14.47l.65.03-.03.65c-.16,3.03-.35,6.1-.53,9.07-.46,7.4-.93,15.04-.97,22.58,0,.4-.01.91-.02,1.52-.06,3.26-.16,9.33.46,14.59.72,6.04,2.2,9.29,4.27,9.39,2.07.11,3.87-2.99,5.2-8.94,1.15-5.18,1.66-11.22,1.93-14.47.05-.6.09-1.11.13-1.5.72-7.54,1.02-15.23,1.31-22.66.12-2.94.23-5.98.38-8.98l.03-.65.65.04c3.7.21,7.45.43,11.13.66l.65.04-.04.65c-.2,3.29-.35,6.63-.5,9.87-.45,9.75-.92,19.83-2.63,29.69-1.35,7.75-4.89,28.11-18.12,28.11ZM410.05,180.26c-.13,3.05-.3,6.13-.46,9.12-.54,9.75-1.09,19.83-.38,29.76.55,7.64,2,27.95,14.69,28.64,11.34.62,15.42-15.12,17.49-27.02,1.7-9.77,2.17-19.82,2.61-29.53.14-3.03.28-6.15.46-9.24-3.26-.2-6.56-.4-9.83-.58-.13,2.78-.24,5.59-.35,8.31-.29,7.45-.59,15.16-1.32,22.74-.04.39-.08.89-.13,1.49-.96,11.48-2.78,24.59-8.31,24.6-.06,0-.12,0-.18,0-5.68-.28-6.17-13.67-5.97-25.31.01-.61.02-1.12.02-1.51.04-7.58.52-15.24.98-22.66.17-2.75.35-5.59.5-8.4-3.27-.15-6.58-.28-9.83-.41Z"/>
            <path class="cls-8" d="M491.64,254.2l-.64-.06c-3.51-.35-7.07-.7-10.57-1.02l-.66-.06.07-.66c.12-1.07.35-2.38.62-3.9.95-5.38,2.38-13.52-.48-17.34-.95-1.27-2.29-1.98-4.1-2.19-2.32-.2-3.59-.31-5.73-.49l-1.95,23.55-.65-.05c-3.51-.29-7.07-.57-10.58-.84l-.65-.05,5.19-69.24.65.05c5.99.46,12.06.95,18.05,1.47,6.95.59,12.16,4.71,14.68,11.61,3.46,9.48,1.15,21.99-5.26,28.81,5.24,6.55,3.82,16.85,2.67,25.16-.23,1.64-.44,3.18-.59,4.61l-.07.64ZM481.21,251.89c3.08.29,6.19.59,9.27.89.15-1.26.33-2.6.52-4.01,1.14-8.25,2.56-18.51-2.74-24.59l-.4-.46.43-.43c6.28-6.28,8.69-18.78,5.37-27.87-2.34-6.4-7.16-10.22-13.57-10.76h0c-5.76-.5-11.61-.98-17.38-1.42l-5,66.65c3.09.23,6.21.48,9.3.73l1.95-23.55.65.05c2.56.21,3.84.32,6.4.55,2.17.24,3.85,1.15,5.01,2.7,3.2,4.27,1.77,12.4.72,18.34-.21,1.19-.4,2.26-.52,3.16ZM477.78,218.56l-.65-.06c-2.7-.24-4.05-.35-6.76-.58l-.65-.05,2.04-24.62.65.05c2.75.23,4.13.35,6.88.59,1.49.08,2.78.71,3.82,1.89,2.47,2.8,2.8,7.96,2.61,10.58-.31,4.21-2.37,11.94-7.93,12.11v.1ZM476.6,217.11l.64.04c5.03.36,6.9-6.97,7.19-10.89.23-3.13-.39-7.47-2.29-9.62-.81-.91-1.77-1.39-2.94-1.45-2.55-.22-3.91-.34-6.25-.53l-1.83,22.03c2.09.17,3.39.28,5.47.47v-.04Z"/>
            <path class="cls-8" d="M561.32,263.04l-.72-.11c-3.48-.53-7.02-1.06-10.52-1.57l-.58-.08.02-.58c.36-10.37.7-20.86,1.02-31.23-2.23,5.74-4.55,11.49-6.82,17.08-1.69,4.16-3.43,8.47-5.11,12.71l-.19.47-.5-.07c-3.49-.47-7.04-.94-10.53-1.39l-.5-.06-.06-.51c-.52-4.53-1.09-9.13-1.64-13.57-.74-5.99-1.5-12.15-2.17-18.28-2.38,10.09-4.76,20.31-7.09,30.43l-.13.57-.58-.07c-3.5-.41-7.05-.82-10.56-1.21l-.72-.08.16-.71c4.94-22.2,10.06-44.69,15.23-66.85l.13-.56.58.07c3.71.43,7.47.89,11.18,1.34l.54.07.03.54c1.05,18.19,2,36.6,2.82,54.79,5.5-17.37,11.18-34.92,16.91-52.2l.17-.51.54.08c3.7.52,7.45,1.06,11.15,1.6l.57.08-.02.58c-.74,22.73-1.61,45.78-2.58,68.52l-.03.72ZM550.85,260.17c3.08.45,6.18.91,9.24,1.37.95-22.3,1.8-44.91,2.53-67.2-3.33-.49-6.7-.97-10.03-1.44-6.04,18.27-12.04,36.82-17.83,55.16l-1.11,3.5-.16-3.67c-.85-19.19-1.84-38.66-2.95-57.89-3.34-.41-6.71-.82-10.05-1.21-5.07,21.74-10.09,43.79-14.94,65.57,3.08.34,6.2.7,9.27,1.06,2.58-11.18,5.22-22.48,7.84-33.6l.89-3.76.39,3.85c.75,7.37,1.67,14.84,2.56,22.06.53,4.29,1.08,8.71,1.58,13.08,3.17.41,6.37.83,9.54,1.25,1.62-4.1,3.3-8.24,4.93-12.25,2.73-6.74,5.55-13.71,8.18-20.62l1.37-3.61-.12,3.86c-.34,11.42-.72,23.02-1.12,34.48Z"/>
            <path class="cls-8" d="M607.1,270.86l-.64-.12c-10.34-1.93-20.85-3.78-31.22-5.49l-.64-.11,11.23-68.52.64.11c10.91,1.8,21.95,3.74,32.82,5.77l.64.12-2.19,11.64-.64-.12c-6.95-1.3-14-2.57-20.97-3.78l-3.75,21.79c4.45.77,8.95,1.57,13.37,2.37l.51.09.03.51c.19,3.61.37,7.22.54,10.83l.04.82-.81-.15c-5.19-.95-10.47-1.89-15.69-2.8l-2,11.62c6.74,1.17,13.55,2.4,20.27,3.65l.64.12-2.19,11.64ZM576.09,264.08c9.96,1.65,20.04,3.42,29.97,5.27l1.71-9.09c-6.72-1.25-13.53-2.48-20.25-3.64l-.64-.11,2.44-14.18.64.11c5.17.89,10.39,1.82,15.54,2.76-.16-3.16-.31-6.33-.48-9.49-4.47-.81-9-1.61-13.49-2.39l-.64-.11,4.19-24.35.64.11c6.97,1.21,14.03,2.48,20.99,3.77l1.71-9.09c-10.44-1.94-21.03-3.81-31.51-5.54l-10.81,65.96Z"/>
            <path class="cls-8" d="M640.95,277.69l-.63-.14c-3.45-.74-6.96-1.48-10.44-2.19l-.64-.13,11.63-56.4c-3.62-.74-7.37-1.5-11.46-2.31l-.64-.13,2.29-11.62.64.13c11.75,2.33,23.65,4.83,35.34,7.43l.63.14-2.58,11.56-.63-.14c-3.63-.81-7.38-1.63-11.44-2.51l-12.07,56.31ZM630.78,274.22c3.06.63,6.14,1.28,9.18,1.93l12.07-56.31.63.14c4.07.87,7.82,1.69,11.45,2.5l2.02-9.03c-11.27-2.5-22.72-4.91-34.04-7.16l-1.79,9.07c4.09.81,7.85,1.57,11.47,2.32l.64.13-11.63,56.4Z"/>
          </g>
        </g>
        <g>
          <path class="cls-6" d="M249.71,299.4c1.2,0,2.33.32,3.37.89v3.4c-1.12-.57-2.07-.9-3.36-.89-2.8,0-5.06,3.41-5.05,7.6,0,4.19,2.29,7.59,5.08,7.58,1.29,0,2.24-.33,3.36-.91v3.4c-1.02.58-2.16.91-3.35.91-4.68.01-8.48-4.9-8.5-10.98-.01-6.07,3.77-11,8.44-11.01Z"/>
          <path class="cls-6" d="M261.56,299.37c4.68-.01,8.48,4.9,8.5,10.98.01,6.07-3.77,11-8.44,11.01-4.68.01-8.48-4.9-8.5-10.98s3.77-11,8.44-11.01ZM261.56,302.78c-2.8,0-5.06,3.41-5.05,7.6,0,4.19,2.29,7.59,5.08,7.58,2.8,0,5.06-3.41,5.05-7.6,0-4.19-2.29-7.59-5.08-7.58Z"/>
          <path class="cls-6" d="M276.68,299.34l3.27,18.58,3.18-18.6h3.43s2.43,21.98,2.43,21.98h-3.4s-1.24-11.24-1.24-11.24c-.83,3.94-1.82,7.65-2.69,11.26h-3.4c-.9-3.68-1.89-7.31-2.74-11.24l-1.19,11.26h-3.4s2.32-21.99,2.32-21.99h3.43Z"/>
          <path class="cls-6" d="M290.54,299.31l10.14-.02v3.4s-6.73.02-6.73.02l.02,7.56h4.43s.79,3.39.79,3.39h-5.21s0,4.24,0,4.24l6.73-.02v3.4s-10.13.02-10.13.02l-.05-21.99Z"/>
          <path class="cls-6" d="M304.69,299.28c4.68-.01,8.48,4.9,8.5,10.98s-3.77,11.01-8.44,11.02h0s-.01,0-.01,0h-2.44s-.05-21.99-.05-21.99h2.46ZM309.78,310.26c0-3.71-1.79-6.79-4.14-7.45l.03,14.92c2.34-.67,4.11-3.76,4.1-7.47Z"/>
          <path class="cls-6" d="M322.46,299.23c4.68-.01,8.48,4.9,8.5,10.98.01,6.07-3.77,11.01-8.44,11.02s-8.48-4.9-8.5-10.98,3.77-11,8.44-11.01ZM322.46,302.64c-2.8,0-5.06,3.41-5.05,7.6,0,4.19,2.29,7.59,5.08,7.58,2.8,0,5.06-3.41,5.05-7.6,0-4.19-2.29-7.59-5.08-7.58Z"/>
          <path class="cls-6" d="M338.05,299.2c5.64-.01,6.92,8.63,3.81,12.51,1.97,1.98,1.66,5.63,1.67,9.47h-3.4c0-1.89,1.01-7.62-2.14-7.62h-2.02s.02,7.63.02,7.63h-3.4s-.05-21.98-.05-21.98h5.53ZM338.08,310.16v-.02c1.43,0,2.16-2,2.11-3.93-.04-1.83-.78-3.61-2.13-3.61h-2.12s.02,7.56.02,7.56h2.12Z"/>
          <path class="cls-6" d="M350.94,299.17h3.43s2.51,10.95,2.51,10.95l2.46-10.96h3.43s-4.18,14.37-4.18,14.37l.02,7.63h-3.4s-.02-7.62-.02-7.62l-4.25-14.35Z"/>
          <path class="cls-6" d="M375.6,299.11l3.27,18.58,3.18-18.6h3.43s2.43,21.98,2.43,21.98h-3.4s-1.24-11.24-1.24-11.24c-.83,3.94-1.82,7.65-2.69,11.26h-3.4c-.9-3.68-1.89-7.31-2.74-11.24l-1.19,11.26h-3.4s2.32-21.99,2.32-21.99h3.43Z"/>
          <path class="cls-6" d="M389.47,299.08l10.14-.02v3.4s-6.73.02-6.73.02l.02,7.56h4.43s.79,3.39.79,3.39h-5.21s0,4.24,0,4.24l6.73-.02v3.4s-10.13.02-10.13.02l-.05-21.99Z"/>
          <path class="cls-6" d="M406.68,299.04c5.64-.01,6.92,8.63,3.81,12.51,1.97,1.98,1.66,5.63,1.67,9.47h-3.4c0-1.89,1.01-7.62-2.14-7.62h-2.02s.02,7.63.02,7.63h-3.4s-.05-21.98-.05-21.98h5.53ZM406.71,310v-.02c1.43,0,2.16-2,2.11-3.93-.04-1.83-.78-3.61-2.13-3.61h-2.12s.02,7.56.02,7.56h2.12Z"/>
          <path class="cls-6" d="M421.85,299.01c1.2,0,2.33.32,3.37.89v3.4c-1.12-.57-2.07-.9-3.36-.89-2.8,0-5.06,3.41-5.05,7.6,0,4.19,2.29,7.59,5.08,7.58,1.29,0,2.24-.33,3.36-.91v3.4c-1.02.58-2.16.91-3.35.91-4.68.01-8.48-4.9-8.5-10.98-.01-6.07,3.77-11,8.44-11.01Z"/>
          <path class="cls-6" d="M434.06,320.97l-.46-3.4h-4.06s-.45,3.42-.45,3.42h-3.43s4.16-21.99,4.16-21.99h3.4s4.26,21.97,4.26,21.97h-3.43ZM433.13,314.17l-1.6-11.78-1.55,11.78h3.15Z"/>
          <path class="cls-6" d="M441.13,298.96c4.68-.01,8.48,4.9,8.5,10.98.01,6.07-3.77,11-8.44,11.01h0s-.01,0-.01,0h-2.44s-.05-21.99-.05-21.99h2.46ZM446.23,309.95c0-3.71-1.79-6.79-4.14-7.45l.03,14.92c2.34-.67,4.11-3.76,4.1-7.47Z"/>
          <path class="cls-6" d="M458.9,298.92c4.68-.01,8.48,4.9,8.5,10.98.01,6.07-3.77,11.01-8.44,11.02s-8.48-4.9-8.5-10.98c-.01-6.07,3.77-11,8.44-11.01ZM458.91,302.33c-2.8,0-5.06,3.41-5.05,7.6,0,4.19,2.29,7.59,5.08,7.58,2.8,0,5.06-3.41,5.05-7.6,0-4.19-2.29-7.59-5.08-7.58Z"/>
        </g>
        <g>
          <path class="cls-6" d="M383.89,66.39c.56,12.04-3.9,25.31-12.88,33.45-4.71,4.04-10.08,7.28-14.08,12.13-2.57,2.8-5.54,5.4-6.85,9.02-.56,1.62-.88,3.49-1.23,4.56-.95,3-1.49-1.62-1.4-3.21.27-12.7,4.77-24.12,12.97-33.7,4.86-5.73,10.07-11.43,13.31-18.36,2.24-4.99,4.63-10.41,4.49-15.9-.02-.84.13-2.73.63-2.38.81.51,1.41,1.83,1.91,2.79,1.68,3.57,2.93,7.45,3.12,11.36l.02.25Z"/>
          <path class="cls-6" d="M338.25,102.72c-2.35,7.91-.19,18.35,4.36,25.25.87,1.28,2.01,2.86,2.44,4.22.28.81.24,1.31-.14,1.41-1.52.27-5.34-3.56-7.13-4.96-7.69-6.42-14.81-16.37-11.44-26.84,1.27-5.37,3.65-10.27,6.32-15.02,4.76-8.63,9.94-16.81,14.53-25.49,2.81-6.3,3.48-14.34-.27-20.35-2.03-2.88-5.54-4.51-8.95-5.67-3.49-1.28-6.96-1.52-10.36-.44-3.94,1.25-3.03-1.18-1.93-3.25,2.31-4.09,6.32-7.63,10.88-9.26,11.1-3.11,22.41,5,27.41,14.65,5.4,8.64,2.78,19.3-1.42,27.8-5.9,13.7-18.37,23.98-24.22,37.7l-.08.23Z"/>
        </g>
      </g>
      <g class="cls-1">
        <g class="cls-7">
          <g class="cls-1">
            <rect class="cls-4" x="-1462.73" y="-3037.71" width="65.38" height="4251.55" transform="translate(225.99 -1278.29) rotate(-45)"/>
            <rect class="cls-4" x="-1352.93" y="-3147.51" width="65.38" height="4251.55" transform="translate(335.79 -1232.81) rotate(-45)"/>
            <rect class="cls-4" x="-1243.12" y="-3257.32" width="65.38" height="4251.55" transform="translate(445.59 -1187.33) rotate(-45)"/>
            <rect class="cls-4" x="-1133.32" y="-3367.12" width="65.38" height="4251.55" transform="translate(555.39 -1141.84) rotate(-45)"/>
            <rect class="cls-4" x="-1023.52" y="-3476.92" width="65.38" height="4251.55" transform="translate(665.2 -1096.36) rotate(-45)"/>
            <rect class="cls-4" x="-913.72" y="-3586.72" width="65.38" height="4251.55" transform="translate(775 -1050.88) rotate(-45)"/>
            <rect class="cls-5" x="161.19" y="-3609.84" width="65.38" height="4251.55" transform="translate(-992.6 -571.76) rotate(45)"/>
            <rect class="cls-5" x="270.99" y="-3500.04" width="65.38" height="4251.55" transform="translate(-882.8 -617.25) rotate(45)"/>
            <rect class="cls-5" x="380.79" y="-3390.23" width="65.38" height="4251.55" transform="translate(-773 -662.73) rotate(45)"/>
            <rect class="cls-5" x="490.59" y="-3280.43" width="65.38" height="4251.55" transform="translate(-663.2 -708.21) rotate(45)"/>
            <rect class="cls-5" x="600.4" y="-3170.63" width="65.38" height="4251.55" transform="translate(-553.4 -753.69) rotate(45)"/>
            <rect class="cls-5" x="697.94" y="-3073.08" width="65.38" height="4251.55" transform="translate(-455.85 -794.1) rotate(45)"/>
            <rect class="cls-5" x="807.74" y="-2963.28" width="65.38" height="4251.55" transform="translate(-346.05 -839.58) rotate(45)"/>
            <rect class="cls-5" x="917.55" y="-2853.48" width="65.38" height="4251.55" transform="translate(-236.24 -885.06) rotate(45)"/>
            <rect class="cls-5" x="1027.35" y="-2743.68" width="65.38" height="4251.55" transform="translate(-126.44 -930.54) rotate(45)"/>
            <rect class="cls-5" x="1137.15" y="-2633.87" width="65.38" height="4251.55" transform="translate(-16.64 -976.02) rotate(45)"/>
          </g>
        </g>
      </g>
    </g>
  </g>
</svg>