<svg width="552" height="176" viewBox="0 0 552 176" fill="none" xmlns="http://www.w3.org/2000/svg">
<g clip-path="url(#clip0_3_1253)">
<path d="M0 139.88V7.89H29.5171V139.89H0V139.88ZM25.916 139.88V113.847H81V139.88H25.916Z" fill="#C6BAFF"/>
<path d="M296.46 175.75V40.78H319.38V83.55L316.31 83.37C316.79 73.51 318.84 65.18 322.45 58.38C326.06 51.59 330.93 46.47 337.07 43.04C343.2 39.61 350.12 37.9 357.82 37.9C364.68 37.9 370.9 39.16 376.5 41.69C382.1 44.22 386.9 47.73 390.94 52.25C394.97 56.76 398.04 62.06 400.14 68.13C402.24 74.21 403.3 80.85 403.3 88.07V92.22C403.3 99.32 402.28 105.96 400.23 112.16C398.18 118.36 395.21 123.74 391.3 128.31C387.39 132.88 382.64 136.46 377.05 139.05C371.46 141.64 365.05 142.93 357.83 142.93C350.61 142.93 343.66 141.4 337.71 138.33C331.76 135.26 326.97 130.57 323.36 124.26C319.75 117.94 317.77 109.91 317.4 100.17L325.34 111V175.78H296.47L296.46 175.75ZM349.69 118.73C354.62 118.73 358.92 117.53 362.59 115.12C366.26 112.71 369.11 109.35 371.16 105.02C373.2 100.69 374.23 95.7 374.23 90.04C374.23 84.38 373.21 79.46 371.16 75.24C369.11 71.03 366.29 67.75 362.68 65.41C359.07 63.07 354.74 61.89 349.69 61.89C345.36 61.89 341.27 62.91 337.42 64.96C333.57 67.01 330.47 69.92 328.13 73.71C325.78 77.5 324.61 82.1 324.61 87.51V94.19C324.61 99.36 325.84 103.78 328.31 107.45C330.77 111.12 333.93 113.92 337.78 115.84C341.63 117.77 345.6 118.73 349.69 118.73Z" fill="#C6BAFF"/>
<path d="M449.1 40.78H407.06V62.07H449.1V40.78Z" fill="#C6BAFF"/>
<path d="M431.42 31.03C426.01 31.03 422.01 29.62 419.42 26.79C416.83 23.96 415.54 20.38 415.54 16.05C415.54 11.72 416.83 7.96 419.42 5.13C422.01 2.31 426.01 0.889999 431.42 0.889999C436.83 0.889999 440.83 2.31 443.42 5.13C446.01 7.96 447.3 11.6 447.3 16.05C447.3 20.5 446.01 23.96 443.42 26.79C440.83 29.62 436.83 31.03 431.42 31.03Z" fill="#C6BAFF"/>
<path d="M449.1 40.78H420.23V139.66H449.1V40.78Z" fill="#C6BAFF"/>
<path d="M458.87 139.66V40.78H481.79V83.18H480.17C480.17 73.08 481.46 64.66 484.05 57.92C486.64 51.18 490.57 46.13 495.87 42.76C501.16 39.39 507.6 37.71 515.18 37.71H516.44C527.99 37.71 536.8 41.47 542.88 48.99C548.95 56.51 551.99 67.91 551.99 83.18V139.66H523.12V81.56C523.12 76.27 521.56 71.94 518.43 68.57C515.3 65.2 511.09 63.52 505.8 63.52C500.51 63.52 496.03 65.23 492.72 68.66C489.41 72.09 487.76 76.57 487.76 82.1V139.66H458.89H458.87Z" fill="#C6BAFF"/>
<path d="M199.54 49.79C236.28 15.17 291.15 43.42 286.79 93.16C284.64 117.7 264.99 137.95 240.14 139.27C218.16 140.43 200.41 129.24 189.23 110.97L202.33 91.48C211.87 110 230.68 126.01 251.58 112.19C277.95 94.74 258.76 47.43 226.25 59.04C201.39 67.91 190.41 120.85 157.5 135.13C121.54 150.74 84.34 124.17 85.64 85.39C87.48 30.58 157.23 16.71 183.27 62.71L170.93 83.62C161.07 66.4 142.13 48.18 121.82 63.07C89.81 86.53 126.47 142.39 160.6 104.71C175.73 88 182.88 65.5 199.52 49.81L199.54 49.79Z" fill="#C6BAFF"/>
</g>
<defs>
<clipPath id="clip0_3_1253">
<rect width="551.98" height="174.89" fill="white" transform="translate(0 0.889999)"/>
</clipPath>
</defs>
</svg>
