<svg width="552" height="176" viewBox="0 0 552 176" fill="none" xmlns="http://www.w3.org/2000/svg">
<g clip-path="url(#clip0_2_1234)">
<path d="M0 139.77V7.78H29.5171V139.78H0V139.77ZM25.916 139.77V113.737H81V139.77H25.916Z" fill="#FF6B81"/>
<path d="M296.46 175.64V40.67H319.38V83.44L316.31 83.26C316.79 73.4 318.84 65.07 322.45 58.27C326.06 51.48 330.93 46.36 337.07 42.93C343.2 39.5 350.12 37.79 357.82 37.79C364.68 37.79 370.9 39.05 376.5 41.58C382.1 44.11 386.9 47.62 390.94 52.14C394.97 56.65 398.04 61.95 400.14 68.02C402.24 74.1 403.3 80.74 403.3 87.96V92.11C403.3 99.21 402.28 105.85 400.23 112.05C398.18 118.25 395.21 123.63 391.3 128.2C387.39 132.77 382.64 136.35 377.05 138.94C371.46 141.53 365.05 142.82 357.83 142.82C350.61 142.82 343.66 141.29 337.71 138.22C331.76 135.15 326.97 130.46 323.36 124.15C319.75 117.83 317.77 109.8 317.4 100.06L325.34 110.89V175.67H296.47L296.46 175.64ZM349.69 118.62C354.62 118.62 358.92 117.42 362.59 115.01C366.26 112.6 369.11 109.24 371.16 104.91C373.2 100.58 374.23 95.59 374.23 89.93C374.23 84.27 373.21 79.35 371.16 75.13C369.11 70.92 366.29 67.64 362.68 65.3C359.07 62.96 354.74 61.78 349.69 61.78C345.36 61.78 341.27 62.8 337.42 64.85C333.57 66.9 330.47 69.81 328.13 73.6C325.78 77.39 324.61 81.99 324.61 87.4V94.08C324.61 99.25 325.84 103.67 328.31 107.34C330.77 111.01 333.93 113.81 337.78 115.73C341.63 117.66 345.6 118.62 349.69 118.62Z" fill="#FF6B81"/>
<path d="M449.1 40.67H407.06V61.96H449.1V40.67Z" fill="#FF6B81"/>
<path d="M431.42 30.92C426.01 30.92 422.01 29.51 419.42 26.68C416.83 23.85 415.54 20.27 415.54 15.94C415.54 11.61 416.83 7.85 419.42 5.02C422.01 2.2 426.01 0.779999 431.42 0.779999C436.83 0.779999 440.83 2.2 443.42 5.02C446.01 7.85 447.3 11.49 447.3 15.94C447.3 20.39 446.01 23.85 443.42 26.68C440.83 29.51 436.83 30.92 431.42 30.92Z" fill="#FF6B81"/>
<path d="M449.1 40.67H420.23V139.55H449.1V40.67Z" fill="#FF6B81"/>
<path d="M458.87 139.55V40.67H481.79V83.07H480.17C480.17 72.97 481.46 64.55 484.05 57.81C486.64 51.07 490.57 46.02 495.87 42.65C501.16 39.28 507.6 37.6 515.18 37.6H516.44C527.99 37.6 536.8 41.36 542.88 48.88C548.95 56.4 551.99 67.8 551.99 83.07V139.55H523.12V81.45C523.12 76.16 521.56 71.83 518.43 68.46C515.3 65.09 511.09 63.41 505.8 63.41C500.51 63.41 496.03 65.12 492.72 68.55C489.41 71.98 487.76 76.46 487.76 81.99V139.55H458.89H458.87Z" fill="#FF6B81"/>
<path d="M199.54 49.68C236.28 15.06 291.15 43.31 286.79 93.05C284.64 117.59 264.99 137.84 240.14 139.16C218.16 140.32 200.41 129.13 189.23 110.86L202.33 91.37C211.87 109.89 230.68 125.9 251.58 112.08C277.95 94.63 258.76 47.32 226.25 58.93C201.39 67.8 190.41 120.74 157.5 135.02C121.54 150.63 84.34 124.06 85.64 85.28C87.48 30.47 157.23 16.6 183.27 62.6L170.93 83.51C161.07 66.29 142.13 48.07 121.82 62.96C89.81 86.42 126.47 142.28 160.6 104.6C175.73 87.89 182.88 65.39 199.52 49.7L199.54 49.68Z" fill="#FF6B81"/>
</g>
<defs>
<clipPath id="clip0_2_1234">
<rect width="551.98" height="174.89" fill="white" transform="translate(0 0.779999)"/>
</clipPath>
</defs>
</svg>
