<?xml version="1.0" encoding="UTF-8"?>
<svg id="Capa_1" data-name="Capa 1" xmlns="http://www.w3.org/2000/svg" viewBox="0 0 393.41 90.82">
  <defs>
    <style>
      .cls-1 {
        fill: #85a7ba;
      }
    </style>
  </defs>
  <path class="cls-1" d="M11.89,79.82V13.67h16.17c9.65,0,16.35,6.06,16.35,16.17,0,7.26-4.14,12.13-10.57,14.98,8.55,2.48,13.51,8.64,13.51,17.55,0,9.46-6.06,17.46-16.54,17.46H11.89ZM22.91,43.53c11.3,0,17.18-5.51,17.18-13.96,0-7.07-3.03-12.22-14.06-12.22h-9.83v26.19h6.71ZM30.08,76.14c5.42,0,12.95-3.95,12.95-13.6,0-7.99-5.6-15.34-15.44-15.34h-11.39v28.94h13.87Z"/>
  <path class="cls-1" d="M105.88,79.82h-4.87l-5.97-20.12h-22.51l-6.06,20.12h-4.78L83.74,11l22.14,68.82ZM73.45,56.02h20.67l-10.38-33.26-10.29,33.26Z"/>
  <path class="cls-1" d="M128.39,43.99c6.43-.09,12.22-7.81,15.71-12.86,3.77-5.51,6.98-11.49,9.37-17.73l4.5,2.39c-2.57,4.5-5.24,8.91-7.9,13.32-4.04,6.71-8.82,13.14-15.62,17.09l28.3,33.63h-5.97l-26.18-32.16h-2.2v32.16h-4.32V13.67h4.32v30.32Z"/>
  <polygon class="cls-1" points="212.55 17.34 184.53 17.34 184.53 43.99 204.65 43.99 204.65 47.66 184.53 47.66 184.53 76.14 213.2 76.14 213.2 79.82 180.21 79.82 180.21 13.67 212.55 13.67 212.55 17.34"/>
  <path class="cls-1" d="M234.7,13.67h15.71c11.12,0,17.55,7.44,17.55,18.19,0,8.36-4.69,15.8-12.77,18.38l17.82,29.58h-5.42l-16.45-28.57h-12.13v28.57h-4.32V13.67ZM239.02,47.57h10.75c5.88,0,13.6-4.5,13.6-16.08,0-7.72-3.68-14.15-12.96-14.15h-11.39v30.23Z"/>
  <polygon class="cls-1" points="315.46 17.34 306.27 17.34 306.27 76.14 315.46 76.14 315.46 79.82 292.77 79.82 292.77 76.14 301.95 76.14 301.95 17.34 292.77 17.34 292.77 13.67 315.46 13.67 315.46 17.34"/>
  <path class="cls-1" d="M381.52,79.82h-4.87l-5.97-20.12h-22.51l-6.06,20.12h-4.78l22.05-68.82,22.14,68.82ZM349.09,56.02h20.67l-10.38-33.26-10.29,33.26Z"/>
</svg>